<svg width="360" height="210" viewBox="0 0 360 210" fill="none" xmlns="http://www.w3.org/2000/svg">
<rect x="65" width="295" height="148" rx="20" fill="url(#paint0_linear_161_11605)" fill-opacity="0.1"/>
<rect x="65" width="295" height="148" rx="20" fill="url(#paint1_radial_161_11605)" fill-opacity="0.2"/>
<rect x="65.5" y="0.5" width="294" height="147" rx="19.5" stroke="white" stroke-opacity="0.2"/>
<g opacity="0.1">
<rect x="81" y="92" width="148" height="8" rx="4" fill="black"/>
</g>
<g opacity="0.1">
<rect x="81" y="108" width="128" height="8" rx="4" fill="black"/>
</g>
<g opacity="0.1">
<rect x="81" y="124" width="168" height="8" rx="4" fill="black"/>
</g>
<g opacity="0.1">
<rect x="81" y="16" width="96" height="12" rx="6" fill="black"/>
</g>
<g clip-path="url(#clip0_161_11605)">
<rect x="32" y="30" width="295" height="148" rx="20" fill="url(#paint2_linear_161_11605)" fill-opacity="0.1"/>
<rect x="32" y="30" width="295" height="148" rx="20" fill="url(#paint3_radial_161_11605)" fill-opacity="0.2"/>
<g opacity="0.2">
<path fill-rule="evenodd" clip-rule="evenodd" d="M304.541 29.1658C309.864 33.293 310.832 40.9521 306.703 46.2729L299.284 55.8333L322.35 73.7178C330.5 80.0368 305.578 92.5731 307.274 101.979C309.22 112.778 336.719 120.628 329.461 129.981L311.569 153.037L321.133 160.453C326.403 164.539 327.405 172.087 323.418 177.4L323.296 177.56C319.167 182.881 311.504 183.849 306.181 179.722C300.911 175.636 299.91 168.088 303.897 162.775L304.019 162.614L311.438 153.054L288.372 135.17C279.703 128.448 304.045 112.631 302.697 102.557C301.322 92.2874 274.406 87.7401 281.261 78.9064L299.153 55.8497L289.589 48.4341C284.266 44.3068 283.298 36.6477 287.427 31.3269C291.556 26.0061 299.218 25.0385 304.541 29.1658Z" stroke="black" stroke-opacity="0.5" stroke-width="0.200585"/>
<path fill-rule="evenodd" clip-rule="evenodd" d="M295.111 29.8708C300.91 33.2987 302.83 40.7761 299.401 46.5723L293.239 56.9867L318.366 71.8404C327.244 77.0886 304.09 92.6483 306.952 101.768C310.237 112.238 338.503 116.581 332.475 126.769L317.615 151.885L328.034 158.044C333.775 161.438 335.714 168.801 332.425 174.572L332.324 174.746C328.895 180.542 321.414 182.462 315.616 179.034C309.875 175.641 307.935 168.278 311.224 162.507L311.326 162.333L317.487 151.918L292.361 137.065C282.917 131.482 305.084 112.741 302.483 102.915C299.832 92.8981 272.558 91.7587 278.251 82.1358L293.111 57.0194L282.693 50.8605C276.894 47.4326 274.973 39.9552 278.403 34.159C281.832 28.3629 289.312 26.443 295.111 29.8708Z" stroke="black" stroke-opacity="0.5" stroke-width="0.200585"/>
<path fill-rule="evenodd" clip-rule="evenodd" d="M285.843 31.7536C292.026 34.4279 294.869 41.6058 292.193 47.7858L287.386 58.89L314.177 70.4787C323.643 74.5733 302.623 92.9111 306.605 101.6C311.177 111.576 339.765 112.343 335.062 123.207L323.469 149.987L334.578 154.792C340.698 157.439 343.546 164.501 341.006 170.638L340.928 170.824C338.252 177.004 331.071 179.846 324.889 177.172C318.768 174.524 315.92 167.463 318.46 161.325L318.539 161.139L323.346 150.035L296.555 138.447C286.486 134.091 306.128 112.72 302.316 103.298C298.429 93.6923 271.228 95.9788 275.67 85.7186L287.263 58.9386L276.154 54.1334C269.972 51.4591 267.129 44.2812 269.804 38.1012C272.479 31.9211 279.66 29.0792 285.843 31.7536Z" stroke="black" stroke-opacity="0.5" stroke-width="0.200585"/>
<path fill-rule="evenodd" clip-rule="evenodd" d="M276.884 34.7803C283.354 36.659 287.074 43.4241 285.195 49.8906L281.818 61.5095L309.851 69.6504C319.755 72.5268 301.2 93.3534 306.241 101.475C312.028 110.799 340.486 107.979 337.183 119.346L329.038 147.367L340.662 150.743C347.066 152.603 350.777 159.252 349.027 165.659L348.972 165.853C347.093 172.32 340.325 176.039 333.856 174.16C327.451 172.3 323.741 165.651 325.491 159.244L325.545 159.05L328.923 147.431L300.89 139.29C290.354 136.23 307.162 112.567 302.198 103.697C297.138 94.6539 270.437 100.33 273.558 89.5943L281.702 61.5731L270.078 58.1976C263.609 56.3189 259.888 49.5538 261.768 43.0873C263.647 36.6208 270.415 32.9017 276.884 34.7803Z" stroke="black" stroke-opacity="0.5" stroke-width="0.200585"/>
<path fill-rule="evenodd" clip-rule="evenodd" d="M268.376 38.9079C275.03 39.9613 279.57 46.2069 278.516 52.8579L276.622 64.8082L305.455 69.373C315.642 70.9858 299.844 93.9728 305.863 101.399C312.774 109.925 340.655 103.562 338.802 115.253L334.235 144.073L346.191 145.966C352.778 147.009 357.293 153.141 356.36 159.717L356.33 159.916C355.276 166.567 349.028 171.105 342.375 170.051C335.787 169.008 331.272 162.877 332.205 156.301L332.235 156.101L334.129 144.151L305.296 139.586C294.459 137.871 308.168 112.288 302.131 104.109C295.977 95.7719 270.199 104.749 271.949 93.7064L276.515 64.8859L264.56 62.9931C257.906 61.9397 253.367 55.6941 254.42 49.0431C255.474 42.3922 261.722 37.8545 268.376 38.9079Z" stroke="black" stroke-opacity="0.5" stroke-width="0.200585"/>
<path fill-rule="evenodd" clip-rule="evenodd" d="M260.452 44.0665C267.186 44.278 272.473 49.9056 272.261 56.6362L271.881 68.7295L301.058 69.6461C311.367 69.9699 298.577 94.7548 305.479 101.368C313.404 108.961 340.267 99.1552 339.895 110.986L338.978 140.152L351.077 140.532C357.743 140.741 362.991 146.259 362.89 152.9L362.885 153.101C362.674 159.832 357.044 165.117 350.311 164.905C343.645 164.696 338.396 159.178 338.497 152.537L338.502 152.335L338.882 140.242L309.705 139.325C298.738 138.981 309.131 111.883 302.116 104.525C294.965 97.0243 270.516 109.16 270.867 97.9854L271.784 68.82L259.686 68.4399C252.953 68.2284 247.666 62.6008 247.877 55.8702C248.089 49.1397 253.719 43.855 260.452 44.0665Z" stroke="black" stroke-opacity="0.5" stroke-width="0.200585"/>
<path fill-rule="evenodd" clip-rule="evenodd" d="M253.238 50.1788C259.945 49.545 265.896 54.466 266.53 61.1699L267.669 73.2156L296.731 70.4695C307 69.4993 297.417 95.6912 305.095 101.388C313.909 107.928 339.331 94.8338 340.445 106.618L343.192 135.668L355.243 134.53C361.883 133.902 367.782 138.719 368.514 145.32L368.535 145.521C369.169 152.225 364.246 158.173 357.539 158.807C350.899 159.434 345.001 154.618 344.268 148.016L344.247 147.816L343.108 135.77L314.046 138.516C303.123 139.548 310.036 111.362 302.154 104.941C294.119 98.3951 271.384 113.498 270.332 102.368L267.584 73.3174L255.534 74.456C248.827 75.0897 242.876 70.1688 242.242 63.4648C241.608 56.7608 246.531 50.8125 253.238 50.1788Z" stroke="black" stroke-opacity="0.5" stroke-width="0.200585"/>
<path fill-rule="evenodd" clip-rule="evenodd" d="M246.847 57.1471C253.422 55.6782 259.942 59.8148 261.412 66.3864L264.053 78.1944L292.541 71.829C302.607 69.5799 296.385 96.7658 304.716 101.456C314.281 106.84 337.86 90.6642 340.444 102.216L346.811 130.693L358.624 128.054C365.133 126.599 371.589 130.639 373.144 137.097L373.189 137.293C374.659 143.865 370.521 150.383 363.946 151.852C357.437 153.306 350.981 149.266 349.427 142.809L349.381 142.612L346.741 130.805L318.252 137.17C307.544 139.562 310.869 110.732 302.244 105.349C293.452 99.8616 272.79 117.694 270.35 106.783L263.981 78.306L252.169 80.9453C245.594 82.4143 239.073 78.2777 237.604 71.706C236.134 65.1343 240.273 58.6161 246.847 57.1471Z" stroke="black" stroke-opacity="0.5" stroke-width="0.200585"/>
<path fill-rule="evenodd" clip-rule="evenodd" d="M241.38 64.8588C247.718 62.5778 254.706 65.8648 256.988 72.2006L261.089 83.5846L288.555 73.7003C298.259 70.2079 295.494 97.959 304.348 101.568C314.513 105.711 335.878 86.7094 339.889 97.8464L349.777 125.301L361.166 121.203C367.441 118.944 374.353 122.143 376.705 128.355L376.775 128.544C379.057 134.88 375.768 141.865 369.43 144.146C363.155 146.405 356.243 143.206 353.891 136.994L353.821 136.805L349.721 125.421L322.255 135.305C311.932 139.02 311.616 110.001 302.384 105.741C292.972 101.398 274.709 121.678 270.921 111.159L261.032 83.7042L249.643 87.8027C243.305 90.0837 236.317 86.7967 234.035 80.4609C231.753 74.1251 235.041 67.1398 241.38 64.8588Z" stroke="black" stroke-opacity="0.5" stroke-width="0.200585"/>
<path fill-rule="evenodd" clip-rule="evenodd" d="M236.923 73.1972C242.925 70.1401 250.27 72.5257 253.329 78.5256L258.824 89.3061L284.834 76.0588C294.024 71.3782 294.761 99.2568 303.997 101.728C314.601 104.565 333.416 83.0366 338.792 93.5833L352.044 119.583L362.83 114.09C368.772 111.063 376.03 113.371 379.143 119.239L379.236 119.418C382.294 125.418 379.907 132.76 373.905 135.817C367.963 138.844 360.704 136.536 357.592 130.668L357.499 130.489L352.004 119.708L325.993 132.956C316.218 137.935 312.265 109.184 302.572 106.114C292.69 102.984 277.114 125.392 272.036 115.431L258.783 89.4319L247.998 94.9248C241.996 97.9819 234.651 95.5963 231.592 89.5964C228.534 83.5965 230.92 76.2543 236.923 73.1972Z" stroke="black" stroke-opacity="0.5" stroke-width="0.200585"/>
<path fill-rule="evenodd" clip-rule="evenodd" d="M233.546 82.0271C239.118 78.2421 246.705 79.6887 250.491 85.2582L257.295 95.2652L281.439 78.8638C289.97 73.0687 294.196 100.635 303.669 101.93C314.546 103.416 330.512 79.7002 337.168 89.4902L353.576 113.624L363.588 106.823C369.104 103.076 376.594 104.457 380.418 109.889L380.532 110.055C384.319 115.624 382.872 123.207 377.3 126.992C371.784 130.739 364.293 129.359 360.47 123.927L360.355 123.761L353.552 113.754L329.407 130.156C320.333 136.32 312.807 108.291 302.805 106.46C292.609 104.593 279.965 128.776 273.678 119.529L257.27 95.3952L247.259 102.196C241.687 105.981 234.101 104.534 230.314 98.9648C226.527 93.3954 227.975 85.8121 233.546 82.0271Z" stroke="black" stroke-opacity="0.5" stroke-width="0.200585"/>
<path fill-rule="evenodd" clip-rule="evenodd" d="M231.304 91.2105C236.357 86.7573 244.065 87.2421 248.52 92.2932L256.525 101.369L278.422 82.0721C286.159 75.254 293.808 102.074 303.369 102.171C314.346 102.283 327.213 76.754 335.044 85.633L354.349 107.521L363.429 99.5196C368.431 95.111 376.036 95.542 380.51 100.452L380.645 100.602C385.1 105.653 384.615 113.358 379.562 117.811C374.559 122.22 366.954 121.789 362.48 116.879L362.346 116.729L354.341 107.653L332.444 126.95C324.214 134.203 313.232 107.338 303.08 106.774C292.73 106.199 283.218 131.775 275.822 123.389L256.516 101.501L247.437 109.502C242.384 113.956 234.676 113.471 230.221 108.42C225.766 103.368 226.251 95.6637 231.304 91.2105Z" stroke="black" stroke-opacity="0.5" stroke-width="0.200585"/>
<path fill-rule="evenodd" clip-rule="evenodd" d="M230.23 100.602C234.685 95.5507 242.393 95.066 247.447 99.5192L256.526 107.521L275.831 85.6325C282.652 77.8989 293.604 103.549 303.102 102.448C314.006 101.184 323.571 74.2438 332.453 82.0716L354.35 101.369L362.355 92.2928C366.766 87.2921 374.364 86.767 379.419 91.0779L379.571 91.21C384.625 95.6632 385.11 103.368 380.655 108.419C376.244 113.42 368.645 113.945 363.591 109.634L363.438 109.502L354.359 101.5L335.054 123.389C327.798 131.615 313.535 106.338 303.392 107.05C293.052 107.777 286.821 134.343 278.432 126.949L256.534 107.653L248.53 116.728C244.075 121.779 236.367 122.264 231.313 117.811C226.26 113.358 225.775 105.653 230.23 100.602Z" stroke="black" stroke-opacity="0.5" stroke-width="0.200585"/>
<path fill-rule="evenodd" clip-rule="evenodd" d="M230.343 110.054C234.13 104.485 241.716 103.038 247.288 106.823L257.299 113.624L273.707 89.4897C279.505 80.9625 293.586 105.038 302.871 102.756C313.531 100.136 319.642 72.21 329.436 78.8633L353.58 95.2649L360.384 85.2576C364.133 79.7439 371.606 78.2709 377.161 81.9146L377.329 82.0266C382.901 85.8116 384.348 93.3949 380.561 98.9643C376.813 104.478 369.34 105.951 363.784 102.307L363.617 102.195L353.605 95.3945L337.197 119.529C331.03 128.599 313.71 105.308 303.736 107.286C293.568 109.302 290.718 136.439 281.468 130.155L257.324 113.754L250.52 123.761C246.734 129.33 239.147 130.777 233.575 126.992C228.004 123.207 226.556 115.623 230.343 110.054Z" stroke="black" stroke-opacity="0.5" stroke-width="0.200585"/>
<path fill-rule="evenodd" clip-rule="evenodd" d="M231.64 119.418C234.698 113.418 242.043 111.032 248.046 114.089L258.831 119.582L272.084 93.583C276.766 84.3967 293.756 106.518 302.681 103.091C312.929 99.156 315.49 70.6847 326.041 76.0585L352.051 89.306L357.547 78.5253C360.574 72.5853 367.804 70.1878 373.772 73.1068L373.953 73.1968C379.955 76.254 382.342 83.5961 379.283 89.596C376.255 95.536 369.026 97.9335 363.058 95.0145L362.877 94.9245L352.092 89.4314L338.839 115.431C333.858 125.203 313.754 104.265 304.107 107.477C294.272 110.751 294.847 138.031 284.882 132.955L258.872 119.708L253.377 130.489C250.318 136.488 242.973 138.874 236.97 135.817C230.968 132.76 228.581 125.418 231.64 119.418Z" stroke="black" stroke-opacity="0.5" stroke-width="0.200585"/>
<path fill-rule="evenodd" clip-rule="evenodd" d="M234.1 128.546C236.382 122.211 243.37 118.924 249.709 121.205L261.098 125.303L270.986 97.8483C274.48 88.1478 294.109 107.966 302.534 103.448C312.208 98.2603 311.179 69.6926 322.32 73.7022L349.787 83.5867L353.887 72.2025C356.146 65.9301 363.018 62.6457 369.305 64.7939L369.495 64.8607C375.834 67.1417 379.122 74.127 376.84 80.4628C374.581 86.7352 367.709 90.0195 361.422 87.8713L361.232 87.8045L349.843 83.706L339.954 111.161C336.238 121.479 313.667 103.226 304.499 107.621C295.152 112.101 299.143 139.094 288.62 135.307L261.154 125.423L257.054 136.807C254.772 143.142 247.783 146.429 241.445 144.148C235.107 141.867 231.818 134.882 234.1 128.546Z" stroke="black" stroke-opacity="0.5" stroke-width="0.200585"/>
<path fill-rule="evenodd" clip-rule="evenodd" d="M237.686 137.293C239.156 130.721 245.677 126.584 252.251 128.053L264.064 130.693L270.432 102.216C272.682 92.154 294.641 109.357 302.434 103.819C311.38 97.4602 306.778 69.2466 318.334 71.8287L346.823 78.1943L349.464 66.3862C350.919 59.8802 357.324 55.7609 363.831 57.1045L364.029 57.1469C370.603 58.6158 374.741 65.134 373.272 71.7057C371.817 78.2117 365.411 82.331 358.904 80.9874L358.707 80.9451L346.894 78.3056L340.526 106.783C338.133 117.486 313.451 102.204 304.906 107.712C296.195 113.328 303.539 139.608 292.624 137.17L264.135 130.805L261.494 142.612C260.025 149.184 253.504 153.321 246.93 151.852C240.355 150.383 236.217 143.864 237.686 137.293Z" stroke="black" stroke-opacity="0.5" stroke-width="0.200585"/>
<path fill-rule="evenodd" clip-rule="evenodd" d="M242.34 145.521C242.974 138.817 248.925 133.896 255.632 134.529L267.683 135.668L270.43 106.618C271.4 96.3535 295.344 110.67 302.38 104.199C310.459 96.7697 302.355 69.3552 314.144 70.4692L343.207 73.2154L344.346 61.1696C344.973 54.5327 350.812 49.6433 357.436 50.1611L357.637 50.1784C364.344 50.8121 369.267 56.7605 368.633 63.4645C368.005 70.1014 362.167 74.9908 355.542 74.473L355.341 74.4557L343.291 73.3169L340.544 102.367C339.511 113.286 313.108 101.216 305.321 107.752C297.383 114.415 307.964 139.568 296.829 138.516L267.767 135.77L266.628 147.815C265.994 154.519 260.043 159.44 253.336 158.807C246.629 158.173 241.706 152.225 242.34 145.521Z" stroke="black" stroke-opacity="0.5" stroke-width="0.200585"/>
<path fill-rule="evenodd" clip-rule="evenodd" d="M247.99 153.102C247.778 146.372 253.065 140.744 259.798 140.532L271.897 140.152L270.98 110.987C270.656 100.682 296.205 111.886 302.375 104.585C309.458 96.2017 297.981 70.0187 309.817 69.6468L338.995 68.7305L338.614 56.637C338.405 49.9737 343.585 44.3914 350.221 44.0752L350.423 44.0672C357.156 43.8557 362.786 49.1404 362.998 55.871C363.207 62.5342 358.028 68.1165 351.391 68.4327L351.189 68.4407L339.091 68.8207L340.008 97.9861C340.353 108.948 312.644 100.281 305.738 107.741C298.698 115.346 312.35 138.975 301.171 139.326L271.993 140.243L272.373 152.336C272.585 159.067 267.298 164.694 260.565 164.906C253.831 165.117 248.201 159.833 247.99 153.102Z" stroke="black" stroke-opacity="0.5" stroke-width="0.200585"/>
<path fill-rule="evenodd" clip-rule="evenodd" d="M254.545 159.915C253.491 153.264 258.031 147.018 264.684 145.965L276.64 144.072L272.073 115.251C270.46 105.068 297.212 112.983 302.418 104.966C308.394 95.7621 293.725 71.2235 305.421 69.3718L334.253 64.8072L332.36 52.8567C331.316 46.2722 335.755 40.0851 342.3 38.9398L342.499 38.9067C349.153 37.8533 355.401 42.391 356.455 49.042C357.498 55.6264 353.059 61.8136 346.514 62.9588L346.315 62.992L334.36 64.8846L338.927 93.7053C340.643 104.537 312.067 99.4104 306.15 107.677C300.119 116.104 316.626 137.836 305.579 139.585L276.747 144.15L278.64 156.1C279.694 162.751 275.154 168.997 268.501 170.05C261.847 171.103 255.599 166.566 254.545 159.915Z" stroke="black" stroke-opacity="0.5" stroke-width="0.200585"/>
<path fill-rule="evenodd" clip-rule="evenodd" d="M261.903 165.853C260.024 159.387 263.744 152.622 270.213 150.743L281.837 147.368L273.693 119.346C270.815 109.446 298.349 113.947 302.509 105.341C307.284 95.4604 289.653 72.9531 301.025 69.6507L329.058 61.51L325.681 49.8909C323.82 43.4891 327.448 36.7946 333.798 34.8385L333.991 34.7807C340.46 32.902 347.228 36.6211 349.107 43.0876C350.968 49.4894 347.34 56.1839 340.99 58.1401L340.797 58.1979L329.173 61.5734L337.318 89.5947C340.379 100.126 311.385 98.6199 306.552 107.562C301.625 116.678 320.726 136.171 309.986 139.29L281.953 147.431L285.33 159.05C287.209 165.517 283.489 172.282 277.02 174.16C270.55 176.039 263.782 172.32 261.903 165.853Z" stroke="black" stroke-opacity="0.5" stroke-width="0.200585"/>
<path fill-rule="evenodd" clip-rule="evenodd" d="M269.948 170.824C267.272 164.644 270.115 157.466 276.298 154.791L287.407 149.986L275.813 123.206C271.717 113.744 299.598 114.76 302.646 105.701C306.144 95.3003 285.83 75.1793 296.698 70.4783L323.489 58.8898L318.682 47.7854C316.033 41.6672 318.793 34.5709 324.848 31.8347L325.032 31.7532C331.215 29.0788 338.396 31.9207 341.071 38.1008C343.72 44.219 340.96 51.3152 334.906 54.0515L334.721 54.133L323.612 58.9382L335.206 85.7182C339.563 95.7832 310.609 97.9211 306.935 107.399C303.19 117.06 324.585 134.006 314.321 138.446L287.53 150.035L292.337 161.139C295.012 167.319 292.169 174.497 285.986 177.171C279.804 179.846 272.623 177.004 269.948 170.824Z" stroke="black" stroke-opacity="0.5" stroke-width="0.200585"/>
<path fill-rule="evenodd" clip-rule="evenodd" d="M278.552 174.746C275.122 168.95 277.043 161.472 282.842 158.044L293.26 151.885L278.401 126.769C273.15 117.895 300.939 115.41 302.827 106.04C304.994 95.2832 282.317 77.8658 292.51 71.8404L317.637 56.9868L311.475 46.5722C308.08 40.8341 309.928 33.448 315.592 29.9749L315.765 29.8708C321.563 26.443 329.044 28.3629 332.473 34.159C335.868 39.8972 334.02 47.2832 328.356 50.7564L328.183 50.8604L317.764 57.0194L332.624 82.1358C338.209 91.5756 309.752 97.324 307.295 107.187C304.791 117.241 328.142 131.374 318.515 137.065L293.389 151.918L299.55 162.333C302.979 168.129 301.059 175.606 295.26 179.034C289.462 182.462 281.981 180.542 278.552 174.746Z" stroke="black" stroke-opacity="0.5" stroke-width="0.200585"/>
<path fill-rule="evenodd" clip-rule="evenodd" d="M287.58 177.56C283.451 172.239 284.419 164.58 289.742 160.453L299.306 153.037L281.414 129.981C275.092 121.834 302.35 115.887 303.048 106.355C303.85 95.4115 279.168 80.9723 288.525 73.7175L311.591 55.8331L304.172 46.2726C300.084 41.0051 300.992 33.4456 306.176 29.2903L306.334 29.1655C311.657 25.0382 319.319 26.0058 323.448 31.3266C327.536 36.5942 326.628 44.1536 321.445 48.3089L321.286 48.4338L311.722 55.8495L329.614 78.9061C336.338 87.5718 308.826 96.8401 307.625 106.933C306.402 117.222 331.341 128.317 322.503 135.169L299.437 153.054L306.856 162.614C310.985 167.935 310.017 175.594 304.694 179.721C299.371 183.849 291.708 182.881 287.58 177.56Z" stroke="black" stroke-opacity="0.5" stroke-width="0.200585"/>
<path fill-rule="evenodd" clip-rule="evenodd" d="M296.89 179.222C292.126 174.46 292.126 166.74 296.89 161.979L305.449 153.423L284.807 132.79C277.514 125.5 303.811 116.185 303.308 106.64C302.731 95.6825 276.434 84.4494 284.807 76.0795L305.449 55.4464L296.89 46.8907C292.174 42.1768 292.127 34.5633 296.748 29.7913L296.89 29.6476C301.653 24.886 309.376 24.886 314.14 29.6476C318.856 34.3616 318.903 41.9751 314.281 46.747L314.14 46.8907L305.581 55.4462L326.223 76.0795C333.981 83.8344 307.847 96.4764 307.922 106.64C307.998 117.001 334.131 124.885 326.223 132.79L305.581 153.423L314.14 161.979C318.904 166.74 318.904 174.46 314.14 179.222C309.376 183.983 301.653 183.983 296.89 179.222Z" stroke="black" stroke-opacity="0.5" stroke-width="0.200585"/>
<path fill-rule="evenodd" clip-rule="evenodd" d="M306.334 179.701C301.011 175.574 300.043 167.915 304.172 162.594L311.591 153.034L288.525 135.149C280.375 128.83 305.297 116.294 303.601 106.888C301.655 96.089 274.156 88.2391 281.414 78.8862L299.306 55.8297L289.742 48.4139C284.472 44.3279 283.47 36.7803 287.457 31.467L287.579 31.3067C291.708 25.9859 299.371 25.0183 304.694 29.1456C309.964 33.2315 310.965 40.7791 306.978 46.0924L306.856 46.2527L299.437 55.813L322.503 73.6976C331.172 80.4193 306.83 96.2358 308.178 106.31C309.553 116.58 336.469 121.127 329.614 129.961L311.722 153.017L321.286 160.433C326.609 164.56 327.577 172.219 323.448 177.54C319.319 182.861 311.657 183.829 306.334 179.701Z" stroke="black" stroke-opacity="0.5" stroke-width="0.200585"/>
<path fill-rule="evenodd" clip-rule="evenodd" d="M315.765 178.996C309.966 175.569 308.045 168.091 311.475 162.295L317.636 151.88L292.509 137.027C283.631 131.779 306.785 116.219 303.924 107.099C300.638 96.6295 272.372 92.2865 278.4 82.098L293.26 56.9818L282.841 50.8227C277.101 47.4292 275.161 40.0666 278.45 34.2957L278.551 34.1213C281.981 28.3252 289.461 26.4053 295.26 29.8331C301 33.2266 302.94 40.5892 299.651 46.3601L299.55 46.5345L293.388 56.9488L318.515 71.8026C327.959 77.3853 305.791 96.1267 308.392 105.953C311.044 115.969 338.317 117.108 332.624 126.731L317.764 151.848L328.183 158.007C333.981 161.435 335.902 168.912 332.473 174.708C329.044 180.504 321.563 182.424 315.765 178.996Z" stroke="black" stroke-opacity="0.5" stroke-width="0.200585"/>
<path fill-rule="evenodd" clip-rule="evenodd" d="M325.032 177.116C318.849 174.441 316.006 167.263 318.682 161.083L323.489 149.979L296.698 138.39C287.232 134.296 308.252 115.958 304.27 107.269C299.698 97.2932 271.11 96.5257 275.813 85.6624L287.406 58.8826L276.297 54.0773C270.177 51.4297 267.329 44.3682 269.869 38.2307L269.947 38.045C272.623 31.865 279.804 29.0231 285.986 31.6974C292.107 34.345 294.955 41.4065 292.415 47.544L292.336 47.7297L287.529 58.8338L314.32 70.4226C324.389 74.7781 304.747 96.1488 308.559 105.571C312.446 115.177 339.647 112.89 335.205 123.151L323.612 149.931L334.721 154.736C340.903 157.41 343.746 164.588 341.071 170.768C338.396 176.948 331.215 179.79 325.032 177.116Z" stroke="black" stroke-opacity="0.5" stroke-width="0.200585"/>
<path fill-rule="evenodd" clip-rule="evenodd" d="M333.991 174.087C327.522 172.208 323.801 165.443 325.681 158.977L329.058 147.358L301.025 139.217C291.12 136.34 309.675 115.514 304.635 107.392C298.848 98.0678 270.389 100.888 273.693 89.5211L281.837 61.4999L270.213 58.1243C263.809 56.2644 260.098 49.6153 261.848 43.2081L261.903 43.014C263.783 36.5475 270.55 32.8284 277.02 34.7071C283.424 36.567 287.135 43.216 285.385 49.6233L285.33 49.8174L281.953 61.4362L309.986 69.5771C320.522 72.6368 303.714 96.2999 308.678 105.171C313.738 114.213 340.438 108.537 337.318 119.273L329.174 147.294L340.797 150.67C347.266 152.548 350.987 159.313 349.108 165.78C347.228 172.246 340.46 175.966 333.991 174.087Z" stroke="black" stroke-opacity="0.5" stroke-width="0.200585"/>
<path fill-rule="evenodd" clip-rule="evenodd" d="M342.499 169.961C335.846 168.908 331.306 162.662 332.36 156.011L334.253 144.061L305.421 139.496C295.233 137.883 311.031 114.896 305.012 107.47C298.102 98.9445 270.221 105.308 272.073 93.6165L276.64 64.796L264.685 62.9032C258.097 61.8603 253.582 55.7285 254.515 49.1526L254.545 48.9532C255.599 42.3022 261.847 37.7645 268.501 38.8179C275.088 39.8608 279.603 45.9926 278.67 52.5685L278.64 52.7679L276.747 64.7183L305.579 69.283C316.416 70.9986 302.707 96.5808 308.744 104.76C314.898 113.097 340.677 104.121 338.927 115.163L334.36 143.983L346.316 145.876C352.969 146.929 357.509 153.175 356.455 159.826C355.401 166.477 349.153 171.015 342.499 169.961Z" stroke="black" stroke-opacity="0.5" stroke-width="0.200585"/>
<path fill-rule="evenodd" clip-rule="evenodd" d="M350.423 164.801C343.689 164.589 338.402 158.962 338.614 152.231L338.994 140.138L309.817 139.221C299.508 138.897 312.298 114.112 305.396 107.499C297.471 99.9061 270.608 109.712 270.98 97.881L271.897 68.7156L259.798 68.3355C253.132 68.1261 247.884 62.6084 247.985 55.9674L247.99 55.7658C248.201 49.0353 253.831 43.7506 260.564 43.9621C267.23 44.1715 272.479 49.6892 272.378 56.3302L272.373 56.5318L271.993 68.6251L301.17 69.5417C312.137 69.8862 301.744 96.984 308.759 104.342C315.91 111.843 340.359 99.7076 340.008 110.882L339.091 140.047L351.189 140.427C357.922 140.639 363.209 146.266 362.998 152.997C362.786 159.728 357.156 165.012 350.423 164.801Z" stroke="black" stroke-opacity="0.5" stroke-width="0.200585"/>
<path fill-rule="evenodd" clip-rule="evenodd" d="M357.638 158.688C350.931 159.322 344.98 154.401 344.346 147.697L343.207 135.652L314.144 138.398C303.876 139.368 313.458 113.176 305.781 107.48C296.966 100.939 271.545 114.033 270.43 102.249L267.683 73.1988L255.632 74.3374C248.993 74.9648 243.094 70.1481 242.361 63.5468L242.341 63.3463C241.707 56.6423 246.63 50.6939 253.336 50.0602C259.976 49.4328 265.875 54.2495 266.607 60.8508L266.628 61.0514L267.767 73.097L296.83 70.3509C307.752 69.3188 300.839 97.5051 308.721 103.926C316.756 110.472 339.491 95.3694 340.544 106.5L343.291 135.55L355.342 134.411C362.048 133.777 367.999 138.698 368.633 145.402C369.267 152.106 364.344 158.055 357.638 158.688Z" stroke="black" stroke-opacity="0.5" stroke-width="0.200585"/>
<path fill-rule="evenodd" clip-rule="evenodd" d="M364.028 151.722C357.454 153.191 350.933 149.054 349.463 142.483L346.823 130.675L318.334 137.04C308.268 139.289 314.491 112.103 306.16 107.414C296.594 102.029 273.015 118.205 270.432 106.653L264.064 78.1761L252.251 80.8155C245.742 82.2698 239.286 78.23 237.732 71.7726L237.686 71.5762C236.217 65.0045 240.355 58.4863 246.929 57.0173C253.438 55.5631 259.894 59.6028 261.449 66.0602L261.494 66.2567L264.135 78.0646L292.624 71.6992C303.331 69.3068 300.006 98.1368 308.632 103.52C317.424 109.008 338.086 91.1756 340.526 102.086L346.894 130.563L358.707 127.924C365.281 126.455 371.802 130.591 373.272 137.163C374.741 143.735 370.603 150.253 364.028 151.722Z" stroke="black" stroke-opacity="0.5" stroke-width="0.200585"/>
<path fill-rule="evenodd" clip-rule="evenodd" d="M369.496 144.008C363.157 146.289 356.169 143.002 353.887 136.667L349.787 125.283L322.321 135.167C312.616 138.659 315.381 110.908 306.528 107.299C296.363 103.156 274.998 122.158 270.986 111.021L261.098 83.566L249.709 87.6645C243.434 89.9227 236.522 86.7237 234.171 80.5119L234.101 80.3228C231.819 73.987 235.107 67.0017 241.445 64.7207C247.721 62.4625 254.632 65.6615 256.984 71.8733L257.054 72.0625L261.154 83.4465L288.62 73.5622C298.943 69.8472 299.26 98.8664 308.492 103.127C317.903 107.469 336.166 87.1895 339.955 97.7083L349.844 125.163L361.232 121.065C367.57 118.784 374.559 122.071 376.841 128.406C379.123 134.742 375.834 141.727 369.496 144.008Z" stroke="black" stroke-opacity="0.5" stroke-width="0.200585"/>
<path fill-rule="evenodd" clip-rule="evenodd" d="M373.953 135.67C367.95 138.727 360.605 136.342 357.547 130.342L352.051 119.561L326.041 132.808C316.851 137.489 316.115 109.61 306.878 107.139C296.274 104.302 277.46 125.831 272.084 115.284L258.831 89.2844L248.046 94.7775C242.104 97.804 234.845 95.4961 231.733 89.628L231.64 89.449C228.582 83.4491 230.968 76.107 236.971 73.0499C242.913 70.0233 250.171 72.3312 253.284 78.1994L253.377 78.3783L258.872 89.1589L284.882 75.9115C294.658 70.9326 298.61 99.6833 308.304 102.753C318.185 105.883 333.762 83.4747 338.839 93.436L352.092 119.435L362.877 113.942C368.88 110.885 376.225 113.271 379.283 119.271C382.342 125.271 379.955 132.613 373.953 135.67Z" stroke="black" stroke-opacity="0.5" stroke-width="0.200585"/>
<path fill-rule="evenodd" clip-rule="evenodd" d="M377.329 126.84C371.757 130.625 364.171 129.178 360.384 123.609L353.581 113.602L329.437 130.003C320.906 135.798 316.68 108.232 307.206 106.937C296.33 105.451 280.364 129.167 273.707 119.377L257.299 95.2428L247.288 102.044C241.772 105.791 234.281 104.411 230.458 98.9785L230.343 98.8127C226.557 93.2432 228.004 85.66 233.575 81.875C239.092 78.1278 246.582 79.5081 250.406 84.9402L250.52 85.106L257.324 95.1131L281.468 78.7116C290.542 72.5472 298.069 100.576 308.071 102.407C318.267 104.274 330.911 80.0915 337.197 89.3381L353.606 113.472L363.617 106.671C369.188 102.886 376.775 104.333 380.561 109.902C384.348 115.472 382.901 123.055 377.329 126.84Z" stroke="black" stroke-opacity="0.5" stroke-width="0.200585"/>
<path fill-rule="evenodd" clip-rule="evenodd" d="M379.572 117.657C374.518 122.11 366.81 121.625 362.355 116.574L354.351 107.498L332.453 126.795C324.717 133.613 317.067 106.794 307.506 106.696C296.529 106.584 283.662 132.113 275.831 123.234L256.527 101.346L247.447 109.348C242.444 113.756 234.839 113.325 230.365 108.415L230.231 108.265C225.775 103.214 226.26 95.5089 231.314 91.0557C236.316 86.6471 243.921 87.0781 248.395 91.9883L248.53 92.1384L256.535 101.214L278.432 81.9173C286.662 74.6647 297.643 101.53 307.796 102.093C318.145 102.668 327.658 77.0921 335.054 85.4782L354.359 107.366L363.439 99.3649C368.492 94.9117 376.2 95.3964 380.655 100.448C385.11 105.499 384.625 113.203 379.572 117.657Z" stroke="black" stroke-opacity="0.5" stroke-width="0.200585"/>
<path fill-rule="evenodd" clip-rule="evenodd" d="M380.645 108.265C376.19 113.316 368.482 113.801 363.429 109.348L354.349 101.347L335.044 123.235C328.223 130.968 317.272 105.318 307.774 106.419C296.869 107.683 287.305 134.623 278.422 126.796L256.525 107.498L248.52 116.574C244.11 121.575 236.511 122.1 231.456 117.789L231.304 117.657C226.251 113.204 225.766 105.499 230.221 100.448C234.631 95.4474 242.23 94.9223 247.285 99.2332L247.437 99.3653L256.517 107.367L275.822 85.4787C283.077 77.2522 297.341 102.529 307.484 101.817C317.824 101.091 324.054 74.5245 332.444 81.9178L354.341 101.215L362.346 92.1389C366.801 87.0878 374.509 86.603 379.562 91.0562C384.615 95.5094 385.1 103.214 380.645 108.265Z" stroke="black" stroke-opacity="0.5" stroke-width="0.200585"/>
<path fill-rule="evenodd" clip-rule="evenodd" d="M380.533 98.8132C376.746 104.383 369.16 105.829 363.588 102.044L353.576 95.2435L337.168 119.377C331.371 127.905 317.289 103.829 308.004 106.111C297.344 108.731 291.233 136.657 281.439 130.004L257.295 113.602L250.491 123.61C246.743 129.123 239.27 130.596 233.714 126.953L233.547 126.841C227.975 123.056 226.528 115.472 230.314 109.903C234.063 104.389 241.536 102.916 247.091 106.56L247.259 106.672L257.27 113.473L273.678 89.3386C279.845 80.268 297.166 103.559 307.14 101.581C317.307 99.5653 320.157 72.4282 329.408 78.7121L353.552 95.1134L360.355 85.1065C364.142 79.5371 371.728 78.0905 377.3 81.8755C382.872 85.6605 384.319 93.2437 380.533 98.8132Z" stroke="black" stroke-opacity="0.5" stroke-width="0.200585"/>
<path fill-rule="evenodd" clip-rule="evenodd" d="M379.236 89.4494C376.177 95.4493 368.832 97.8349 362.83 94.7778L352.045 89.2849L338.792 115.284C334.109 124.47 317.12 102.349 308.194 105.776C297.947 109.711 295.385 138.183 284.834 132.809L258.824 119.561L253.329 130.342C250.301 136.282 243.072 138.679 237.103 135.76L236.923 135.67C230.92 132.613 228.534 125.271 231.592 119.271C234.62 113.331 241.849 110.934 247.818 113.853L247.998 113.943L258.783 119.436L272.036 93.4363C277.017 83.6646 297.121 104.602 306.769 101.39C316.603 98.1165 316.028 70.8363 325.993 75.9118L352.004 89.159L357.499 78.3786C360.557 72.3787 367.903 69.9931 373.905 73.0502C379.907 76.1073 382.294 83.4495 379.236 89.4494Z" stroke="black" stroke-opacity="0.5" stroke-width="0.200585"/>
<path fill-rule="evenodd" clip-rule="evenodd" d="M376.775 80.3229C374.493 86.6586 367.505 89.9456 361.166 87.6646L349.777 83.5662L339.889 111.021C336.395 120.721 316.766 100.903 308.341 105.421C298.667 110.609 299.696 139.177 288.555 135.167L261.088 125.282L256.988 136.667C254.729 142.939 247.857 146.223 241.57 144.075L241.38 144.008C235.041 141.727 231.753 134.742 234.035 128.406C236.294 122.134 243.166 118.85 249.453 120.998L249.643 121.065L261.032 125.163L270.921 97.7084C274.637 87.3897 297.208 105.643 306.376 101.249C315.723 96.7684 311.732 69.7753 322.255 73.5623L349.721 83.4464L353.821 72.0626C356.103 65.7268 363.092 62.4398 369.43 64.7208C375.768 67.0018 379.057 73.9871 376.775 80.3229Z" stroke="black" stroke-opacity="0.5" stroke-width="0.200585"/>
<path fill-rule="evenodd" clip-rule="evenodd" d="M373.189 71.5745C371.72 78.1462 365.199 82.2828 358.624 80.8138L346.811 78.1745L340.443 106.651C338.193 116.713 316.234 99.5099 308.442 105.048C299.495 111.407 304.098 139.621 292.541 137.038L264.052 130.673L261.412 142.481C259.957 148.987 253.551 153.106 247.044 151.763L246.847 151.72C240.272 150.251 236.134 143.733 237.604 137.161C239.059 130.655 245.464 126.536 251.971 127.88L252.169 127.922L263.981 130.562L270.349 102.084C272.743 91.3815 297.424 106.664 305.97 101.155C314.681 95.539 307.337 69.2587 318.252 71.6975L346.741 78.0627L349.381 66.2549C350.851 59.6833 357.372 55.5467 363.946 57.0156C370.52 58.4846 374.659 65.0028 373.189 71.5745Z" stroke="black" stroke-opacity="0.5" stroke-width="0.200585"/>
<path fill-rule="evenodd" clip-rule="evenodd" d="M368.535 63.3466C367.901 70.0506 361.95 74.9715 355.244 74.3378L343.193 73.1992L340.446 102.249C339.475 112.514 315.532 98.1972 308.495 104.668C300.417 112.098 308.521 139.512 296.731 138.398L267.669 135.652L266.53 147.698C265.902 154.335 260.063 159.224 253.439 158.706L253.238 158.689C246.531 158.055 241.608 152.107 242.242 145.403C242.87 138.766 248.709 133.876 255.333 134.394L255.534 134.412L267.585 135.55L270.332 106.5C271.364 95.5815 297.768 107.651 305.555 101.115C313.493 94.4521 302.911 69.2992 314.046 70.3513L343.109 73.0971L344.248 61.0517C344.882 54.3477 350.833 49.4268 357.539 50.0605C364.246 50.6942 369.169 56.6426 368.535 63.3466Z" stroke="black" stroke-opacity="0.5" stroke-width="0.200585"/>
<path fill-rule="evenodd" clip-rule="evenodd" d="M362.886 55.7651C363.097 62.4956 357.81 68.1233 351.077 68.3348L338.979 68.7149L339.896 97.8802C340.22 108.185 314.67 96.9811 308.5 104.283C301.417 112.666 312.894 138.849 301.058 139.22L271.881 140.137L272.261 152.23C272.471 158.893 267.291 164.476 260.654 164.792L260.452 164.8C253.719 165.011 248.089 159.727 247.878 152.996C247.668 146.333 252.848 140.751 259.485 140.434L259.686 140.426L271.785 140.047L270.868 110.881C270.523 99.9194 298.231 108.586 305.137 101.126C312.177 93.5211 298.526 69.8921 309.705 69.5409L338.882 68.6242L338.502 56.531C338.29 49.8005 343.577 44.1728 350.311 43.9613C357.044 43.7498 362.674 49.0345 362.886 55.7651Z" stroke="black" stroke-opacity="0.5" stroke-width="0.200585"/>
<path fill-rule="evenodd" clip-rule="evenodd" d="M356.331 48.9524C357.384 55.6034 352.845 61.849 346.191 62.9024L334.236 64.7953L338.802 93.6157C340.416 103.799 313.663 95.884 308.458 103.901C302.481 113.105 317.151 137.644 305.455 139.495L276.622 144.06L278.516 156.01C279.559 162.595 275.12 168.782 268.575 169.927L268.376 169.96C261.723 171.014 255.475 166.476 254.421 159.825C253.377 153.241 257.816 147.054 264.361 145.908L264.56 145.875L276.515 143.983L271.949 115.162C270.233 104.33 298.809 109.457 304.725 101.19C310.756 92.7635 294.25 71.0311 305.296 69.2822L334.129 64.7173L332.235 52.7672C331.181 46.1162 335.721 39.8706 342.375 38.8172C349.029 37.7638 355.277 42.3015 356.331 48.9524Z" stroke="black" stroke-opacity="0.5" stroke-width="0.200585"/>
<path fill-rule="evenodd" clip-rule="evenodd" d="M348.972 43.0137C350.852 49.4802 347.131 56.2453 340.662 58.124L329.038 61.4996L337.183 89.5208C340.06 99.4214 312.526 94.9206 308.367 103.526C303.591 113.407 321.222 135.914 309.851 139.216L281.818 147.357L285.195 158.976C287.056 165.378 283.428 172.073 277.078 174.029L276.885 174.087C270.415 175.965 263.647 172.246 261.768 165.78C259.907 159.378 263.535 152.683 269.885 150.727L270.078 150.669L281.702 147.294L273.558 119.273C270.497 108.741 299.491 110.247 304.324 101.305C309.251 92.1889 290.149 72.6959 300.89 69.5768L328.922 61.4357L325.546 49.817C323.666 43.3505 327.387 36.5854 333.856 34.7068C340.325 32.8281 347.093 36.5472 348.972 43.0137Z" stroke="black" stroke-opacity="0.5" stroke-width="0.200585"/>
<path fill-rule="evenodd" clip-rule="evenodd" d="M340.928 38.0439C343.603 44.2241 340.76 51.402 334.578 54.0763L323.469 58.8815L335.063 85.6618C339.159 95.1239 311.278 94.1079 308.231 103.167C304.732 113.568 325.046 133.689 314.178 138.39L287.388 149.978L292.195 161.083C294.844 167.201 292.084 174.298 286.03 177.034L285.845 177.115C279.663 179.79 272.482 176.948 269.806 170.767C267.158 164.649 269.917 157.553 275.972 154.817L276.156 154.735L287.265 149.93L275.671 123.15C271.314 113.084 300.268 110.947 303.941 101.469C307.686 91.808 286.291 74.8613 296.556 70.4213L323.346 58.8326L318.539 47.7284C315.863 41.5483 318.706 34.3704 324.889 31.6961C331.071 29.0218 338.252 31.8638 340.928 38.0439Z" stroke="black" stroke-opacity="0.5" stroke-width="0.200585"/>
<path fill-rule="evenodd" clip-rule="evenodd" d="M332.323 34.1244C335.753 39.9211 333.833 47.3988 328.035 50.8262L317.617 56.9848L332.479 82.1035C337.73 90.9786 309.942 93.4616 308.056 102.831C305.89 113.589 328.567 131.009 318.375 137.034L293.251 151.886L299.413 162.301C302.808 168.04 300.961 175.426 295.298 178.899L295.125 179.003C289.327 182.431 281.846 180.51 278.417 174.713C275.022 168.975 276.869 161.588 282.532 158.116L282.705 158.011L293.123 151.853L278.261 126.734C272.676 117.293 301.132 111.547 303.587 101.684C306.09 91.6294 282.739 77.4944 292.365 71.8041L317.489 56.9516L311.327 46.5364C307.898 40.7397 309.817 33.262 315.615 29.8345C321.413 26.4071 328.894 28.3277 332.323 34.1244Z" stroke="black" stroke-opacity="0.5" stroke-width="0.200585"/>
<path fill-rule="evenodd" clip-rule="evenodd" d="M323.296 31.3072C327.425 36.628 326.457 44.2871 321.134 48.4143L311.57 55.8301L329.462 78.8867C335.784 87.0333 308.525 92.9802 307.828 102.512C307.026 113.456 331.708 127.895 322.351 135.15L299.285 153.034L306.704 162.595C310.792 167.862 309.884 175.422 304.701 179.577L304.542 179.702C299.219 183.829 291.557 182.862 287.428 177.541C283.34 172.273 284.248 164.714 289.432 160.558L289.59 160.434L299.154 153.018L281.262 129.961C274.538 121.295 302.05 112.027 303.25 101.934C304.474 91.6455 279.535 80.55 288.373 73.6979L311.438 55.8133L304.02 46.2531C299.891 40.9323 300.859 33.2731 306.182 29.1459C311.505 25.0187 319.167 25.9863 323.296 31.3072Z" stroke="black" stroke-opacity="0.5" stroke-width="0.200585"/>
<path fill-rule="evenodd" clip-rule="evenodd" d="M313.986 29.6473C318.749 34.4089 318.749 42.1289 313.986 46.8905L305.427 55.446L326.069 76.0792C333.362 83.3695 307.064 92.6846 307.567 102.229C308.144 113.187 334.442 124.42 326.069 132.79L305.427 153.423L313.986 161.978C318.702 166.692 318.749 174.306 314.127 179.078L313.986 179.222C309.222 183.983 301.499 183.983 296.735 179.222C292.02 174.508 291.972 166.894 296.594 162.122L296.735 161.978L305.295 153.423L284.653 132.79C276.895 125.035 303.028 112.393 302.954 102.229C302.878 91.868 276.744 83.9845 284.653 76.0792L305.294 55.4458L296.735 46.8905C291.972 42.1289 291.972 34.4089 296.735 29.6473C301.499 24.8858 309.222 24.8858 313.986 29.6473Z" stroke="black" stroke-opacity="0.5" stroke-width="0.200585"/>
</g>
<g opacity="0.1">
<rect x="48" y="122" width="148" height="8" rx="4" fill="black"/>
</g>
<g opacity="0.1">
<rect x="48" y="138" width="128" height="8" rx="4" fill="black"/>
</g>
<g opacity="0.1">
<rect x="48" y="154" width="168" height="8" rx="4" fill="black"/>
</g>
<g opacity="0.1">
<rect x="48" y="46" width="96" height="12" rx="6" fill="black"/>
</g>
</g>
<rect x="32.5" y="30.5" width="294" height="147" rx="19.5" stroke="white" stroke-opacity="0.2"/>
<g clip-path="url(#clip1_161_11605)">
<rect y="60" width="295" height="148" rx="20" fill="url(#paint4_linear_161_11605)" fill-opacity="0.1"/>
<rect y="60" width="295" height="148" rx="20" fill="url(#paint5_radial_161_11605)" fill-opacity="0.2"/>
<circle cx="401.5" cy="134" r="87.748" transform="rotate(-6.19579 401.5 134)" stroke="url(#paint6_radial_161_11605)" stroke-width="27.2812" stroke-dasharray="0.28 56.25"/>
<circle cx="401.781" cy="133.718" r="71.7197" transform="rotate(-6.19579 401.781 133.718)" stroke="url(#paint7_radial_161_11605)" stroke-opacity="0.5" stroke-width="84.375" stroke-dasharray="0.28 19.69"/>
<g opacity="0.1">
<rect x="16" y="152" width="148" height="8" rx="4" fill="black"/>
</g>
<g opacity="0.1">
<rect x="16" y="168" width="128" height="8" rx="4" fill="black"/>
</g>
<g opacity="0.1">
<rect x="16" y="184" width="168" height="8" rx="4" fill="black"/>
</g>
<g opacity="0.1">
<rect x="16" y="76" width="96" height="12" rx="6" fill="black"/>
</g>
<path fill-rule="evenodd" clip-rule="evenodd" d="M36 114C41.5228 114 46 109.523 46 104C46 98.4772 41.5228 94 36 94C30.4772 94 26 98.4772 26 104C26 109.523 30.4772 114 36 114ZM36.75 98C36.75 97.5858 36.4142 97.25 36 97.25C35.5858 97.25 35.25 97.5858 35.25 98V98.3167C33.6196 98.6087 32.25 99.8336 32.25 101.5C32.25 103.417 34.0628 104.75 36 104.75C37.3765 104.75 38.25 105.656 38.25 106.5C38.25 107.344 37.3765 108.25 36 108.25C34.6235 108.25 33.75 107.344 33.75 106.5C33.75 106.086 33.4142 105.75 33 105.75C32.5858 105.75 32.25 106.086 32.25 106.5C32.25 108.166 33.6196 109.391 35.25 109.683V110C35.25 110.414 35.5858 110.75 36 110.75C36.4142 110.75 36.75 110.414 36.75 110V109.683C38.3804 109.391 39.75 108.166 39.75 106.5C39.75 104.583 37.9372 103.25 36 103.25C34.6235 103.25 33.75 102.344 33.75 101.5C33.75 100.656 34.6235 99.75 36 99.75C37.3765 99.75 38.25 100.656 38.25 101.5C38.25 101.914 38.5858 102.25 39 102.25C39.4142 102.25 39.75 101.914 39.75 101.5C39.75 99.8336 38.3804 98.6087 36.75 98.3167V98Z" fill="#FAFAFA"/>
<path d="M61.3894 110V98.8H63.9494L66.9254 109.152H67.1334L70.1094 98.8H72.6694V110H71.3734V99.68H71.1494L68.1894 110H65.8694L62.9094 99.68H62.6854V110H61.3894ZM77.6811 110.224C77.1371 110.224 76.6411 110.128 76.1931 109.936C75.7451 109.744 75.3931 109.467 75.1371 109.104C74.8811 108.741 74.7531 108.299 74.7531 107.776C74.7531 107.243 74.8811 106.805 75.1371 106.464C75.3931 106.112 75.7451 105.851 76.1931 105.68C76.6411 105.499 77.1425 105.408 77.6971 105.408H80.3371V104.832C80.3371 104.277 80.1718 103.84 79.8411 103.52C79.5211 103.2 79.0411 103.04 78.4011 103.04C77.7718 103.04 77.2811 103.195 76.9291 103.504C76.5771 103.803 76.3371 104.208 76.2091 104.72L75.0251 104.336C75.1531 103.899 75.3558 103.504 75.6331 103.152C75.9105 102.789 76.2785 102.501 76.7371 102.288C77.2065 102.064 77.7665 101.952 78.4171 101.952C79.4198 101.952 80.1985 102.213 80.7531 102.736C81.3078 103.248 81.5851 103.973 81.5851 104.912V108.448C81.5851 108.768 81.7345 108.928 82.0331 108.928H82.7531V110H81.6491C81.2971 110 81.0145 109.904 80.8011 109.712C80.5878 109.509 80.4811 109.243 80.4811 108.912V108.832H80.2891C80.1718 109.035 80.0118 109.248 79.8091 109.472C79.6171 109.685 79.3505 109.861 79.0091 110C78.6678 110.149 78.2251 110.224 77.6811 110.224ZM77.8251 109.136C78.5718 109.136 79.1745 108.917 79.6331 108.48C80.1025 108.032 80.3371 107.408 80.3371 106.608V106.432H77.7451C77.2438 106.432 76.8278 106.544 76.4971 106.768C76.1771 106.981 76.0171 107.307 76.0171 107.744C76.0171 108.181 76.1825 108.523 76.5131 108.768C76.8545 109.013 77.2918 109.136 77.8251 109.136ZM84.4843 110V102.176H85.7163V103.136H85.9403C86.0789 102.795 86.2923 102.544 86.5803 102.384C86.8683 102.224 87.2469 102.144 87.7163 102.144H88.6443V103.296H87.6363C87.0709 103.296 86.6123 103.456 86.2603 103.776C85.9189 104.085 85.7483 104.571 85.7483 105.232V110H84.4843ZM90.5155 110V98.8H91.7795V105.392H92.0035L95.5875 102.176H97.3475L93.0115 105.984L97.4755 110H95.7315L92.0035 106.592H91.7795V110H90.5155ZM102.287 110.224C101.498 110.224 100.804 110.059 100.207 109.728C99.6097 109.387 99.1457 108.912 98.815 108.304C98.4843 107.696 98.319 106.992 98.319 106.192V106C98.319 105.189 98.4843 104.48 98.815 103.872C99.1457 103.264 99.6043 102.795 100.191 102.464C100.778 102.123 101.45 101.952 102.207 101.952C102.943 101.952 103.594 102.112 104.159 102.432C104.724 102.741 105.167 103.189 105.487 103.776C105.807 104.363 105.967 105.051 105.967 105.84V106.416H99.583C99.615 107.259 99.887 107.92 100.399 108.4C100.911 108.869 101.551 109.104 102.319 109.104C102.991 109.104 103.508 108.949 103.871 108.64C104.234 108.331 104.511 107.963 104.703 107.536L105.791 108.064C105.631 108.395 105.407 108.725 105.119 109.056C104.842 109.387 104.474 109.664 104.015 109.888C103.567 110.112 102.991 110.224 102.287 110.224ZM99.599 105.376H104.687C104.644 104.651 104.394 104.085 103.935 103.68C103.487 103.275 102.911 103.072 102.207 103.072C101.492 103.072 100.906 103.275 100.447 103.68C99.9883 104.085 99.7057 104.651 99.599 105.376ZM110.724 110C110.276 110 109.929 109.877 109.684 109.632C109.449 109.387 109.332 109.051 109.332 108.624V103.28H106.98V102.176H109.332V99.392H110.596V102.176H113.156V103.28H110.596V108.432C110.596 108.752 110.75 108.912 111.06 108.912H112.804V110H110.724ZM123.312 110.224C121.979 110.224 120.918 109.84 120.128 109.072C119.339 108.293 118.944 107.163 118.944 105.68V103.12C118.944 101.637 119.339 100.512 120.128 99.744C120.918 98.9653 121.979 98.576 123.312 98.576C124.635 98.576 125.648 98.944 126.352 99.68C127.067 100.416 127.424 101.424 127.424 102.704V102.784H126.096V102.656C126.096 101.813 125.867 101.125 125.408 100.592C124.96 100.048 124.262 99.776 123.312 99.776C122.363 99.776 121.622 100.069 121.088 100.656C120.555 101.232 120.288 102.043 120.288 103.088V105.712C120.288 106.757 120.555 107.573 121.088 108.16C121.622 108.736 122.363 109.024 123.312 109.024C124.262 109.024 124.96 108.757 125.408 108.224C125.867 107.68 126.096 106.987 126.096 106.144V105.888H127.424V106.096C127.424 107.376 127.067 108.384 126.352 109.12C125.648 109.856 124.635 110.224 123.312 110.224ZM131.978 110.224C131.434 110.224 130.938 110.128 130.49 109.936C130.042 109.744 129.69 109.467 129.434 109.104C129.178 108.741 129.05 108.299 129.05 107.776C129.05 107.243 129.178 106.805 129.434 106.464C129.69 106.112 130.042 105.851 130.49 105.68C130.938 105.499 131.439 105.408 131.994 105.408H134.634V104.832C134.634 104.277 134.469 103.84 134.138 103.52C133.818 103.2 133.338 103.04 132.698 103.04C132.069 103.04 131.578 103.195 131.226 103.504C130.874 103.803 130.634 104.208 130.506 104.72L129.322 104.336C129.45 103.899 129.653 103.504 129.93 103.152C130.207 102.789 130.575 102.501 131.034 102.288C131.503 102.064 132.063 101.952 132.714 101.952C133.717 101.952 134.495 102.213 135.05 102.736C135.605 103.248 135.882 103.973 135.882 104.912V108.448C135.882 108.768 136.031 108.928 136.33 108.928H137.05V110H135.946C135.594 110 135.311 109.904 135.098 109.712C134.885 109.509 134.778 109.243 134.778 108.912V108.832H134.586C134.469 109.035 134.309 109.248 134.106 109.472C133.914 109.685 133.647 109.861 133.306 110C132.965 110.149 132.522 110.224 131.978 110.224ZM132.122 109.136C132.869 109.136 133.471 108.917 133.93 108.48C134.399 108.032 134.634 107.408 134.634 106.608V106.432H132.042C131.541 106.432 131.125 106.544 130.794 106.768C130.474 106.981 130.314 107.307 130.314 107.744C130.314 108.181 130.479 108.523 130.81 108.768C131.151 109.013 131.589 109.136 132.122 109.136ZM138.781 113.2V102.176H140.013V103.472H140.237C140.44 103.077 140.765 102.725 141.213 102.416C141.672 102.107 142.306 101.952 143.117 101.952C143.789 101.952 144.402 102.117 144.957 102.448C145.522 102.768 145.97 103.227 146.301 103.824C146.642 104.421 146.813 105.141 146.813 105.984V106.192C146.813 107.024 146.648 107.744 146.317 108.352C145.986 108.96 145.538 109.424 144.973 109.744C144.418 110.064 143.8 110.224 143.117 110.224C142.573 110.224 142.109 110.149 141.725 110C141.352 109.861 141.048 109.68 140.813 109.456C140.578 109.232 140.397 109.003 140.269 108.768H140.045V113.2H138.781ZM142.781 109.104C143.592 109.104 144.248 108.848 144.749 108.336C145.261 107.813 145.517 107.088 145.517 106.16V106.016C145.517 105.088 145.261 104.368 144.749 103.856C144.248 103.333 143.592 103.072 142.781 103.072C141.981 103.072 141.32 103.333 140.797 103.856C140.285 104.368 140.029 105.088 140.029 106.016V106.16C140.029 107.088 140.285 107.813 140.797 108.336C141.32 108.848 141.981 109.104 142.781 109.104Z" fill="#999999"/>
<g clip-path="url(#clip2_161_11605)">
<path d="M31.464 172.336C30.2 172.336 29.08 172.112 28.104 171.664C27.128 171.216 26.36 170.56 25.8 169.696C25.256 168.816 24.984 167.752 24.984 166.504V165.904H27.552V166.504C27.552 167.688 27.904 168.576 28.608 169.168C29.328 169.76 30.28 170.056 31.464 170.056C32.664 170.056 33.568 169.808 34.176 169.312C34.784 168.8 35.088 168.144 35.088 167.344C35.088 166.816 34.944 166.384 34.656 166.048C34.384 165.712 33.984 165.448 33.456 165.256C32.928 165.048 32.296 164.856 31.56 164.68L30.672 164.464C29.6 164.208 28.672 163.896 27.888 163.528C27.104 163.144 26.496 162.64 26.064 162.016C25.632 161.392 25.416 160.592 25.416 159.616C25.416 158.624 25.656 157.776 26.136 157.072C26.616 156.368 27.288 155.824 28.152 155.44C29.016 155.056 30.032 154.864 31.2 154.864C32.368 154.864 33.408 155.064 34.32 155.464C35.248 155.864 35.976 156.456 36.504 157.24C37.048 158.024 37.32 159.008 37.32 160.192V161.056H34.752V160.192C34.752 159.472 34.6 158.888 34.296 158.44C34.008 157.992 33.592 157.664 33.048 157.456C32.52 157.248 31.904 157.144 31.2 157.144C30.176 157.144 29.384 157.36 28.824 157.792C28.264 158.208 27.984 158.792 27.984 159.544C27.984 160.056 28.104 160.48 28.344 160.816C28.6 161.136 28.968 161.4 29.448 161.608C29.928 161.816 30.52 162 31.224 162.16L32.112 162.376C33.2 162.616 34.16 162.928 34.992 163.312C35.824 163.68 36.472 164.184 36.936 164.824C37.416 165.464 37.656 166.288 37.656 167.296C37.656 168.304 37.4 169.184 36.888 169.936C36.392 170.688 35.68 171.28 34.752 171.712C33.824 172.128 32.728 172.336 31.464 172.336ZM30.264 174.784V152.416H32.64V174.784H30.264ZM45.969 172.336C44.673 172.336 43.537 172.144 42.561 171.76C41.601 171.376 40.849 170.824 40.305 170.104C39.777 169.368 39.513 168.512 39.513 167.536V167.272C39.513 166.472 39.665 165.816 39.969 165.304C40.289 164.776 40.673 164.368 41.121 164.08C41.585 163.776 42.017 163.576 42.417 163.48V163.096C42.017 162.984 41.609 162.784 41.193 162.496C40.777 162.192 40.433 161.8 40.161 161.32C39.905 160.824 39.777 160.232 39.777 159.544V159.28C39.777 158.384 40.033 157.608 40.545 156.952C41.073 156.296 41.801 155.784 42.729 155.416C43.657 155.048 44.737 154.864 45.969 154.864C47.185 154.864 48.257 155.048 49.185 155.416C50.113 155.784 50.833 156.296 51.345 156.952C51.873 157.608 52.137 158.384 52.137 159.28V159.544C52.137 160.232 52.001 160.824 51.729 161.32C51.473 161.8 51.145 162.192 50.745 162.496C50.345 162.784 49.937 162.984 49.521 163.096V163.48C49.937 163.576 50.369 163.776 50.817 164.08C51.265 164.368 51.641 164.776 51.945 165.304C52.249 165.816 52.401 166.472 52.401 167.272V167.536C52.401 168.512 52.129 169.368 51.585 170.104C51.057 170.824 50.305 171.376 49.329 171.76C48.369 172.144 47.249 172.336 45.969 172.336ZM45.969 170.08C47.185 170.08 48.137 169.848 48.825 169.384C49.529 168.904 49.881 168.24 49.881 167.392V167.2C49.881 166.336 49.537 165.672 48.849 165.208C48.177 164.728 47.217 164.488 45.969 164.488C44.721 164.488 43.753 164.728 43.065 165.208C42.377 165.672 42.033 166.336 42.033 167.2V167.392C42.033 168.24 42.377 168.904 43.065 169.384C43.769 169.848 44.737 170.08 45.969 170.08ZM45.969 162.232C47.105 162.232 47.993 162.016 48.633 161.584C49.289 161.152 49.617 160.544 49.617 159.76V159.568C49.617 158.784 49.289 158.184 48.633 157.768C47.977 157.336 47.089 157.12 45.969 157.12C44.833 157.12 43.937 157.336 43.281 157.768C42.625 158.184 42.297 158.784 42.297 159.568V159.76C42.297 160.544 42.617 161.152 43.257 161.584C43.913 162.016 44.817 162.232 45.969 162.232ZM60.4969 172.336C59.2489 172.336 58.1769 172.128 57.2809 171.712C56.3849 171.28 55.6969 170.68 55.2169 169.912C54.7369 169.128 54.4969 168.216 54.4969 167.176H57.0649C57.0649 168.008 57.3369 168.704 57.8809 169.264C58.4409 169.808 59.3129 170.08 60.4969 170.08C61.6969 170.08 62.6169 169.76 63.2569 169.12C63.8969 168.48 64.2169 167.608 64.2169 166.504V164.488H63.8329C63.5609 164.872 63.1209 165.24 62.5129 165.592C61.9049 165.944 61.0249 166.12 59.8729 166.12C58.8969 166.12 57.9929 165.904 57.1609 165.472C56.3289 165.04 55.6569 164.424 55.1449 163.624C54.6489 162.808 54.4009 161.84 54.4009 160.72V160.432C54.4009 159.312 54.6569 158.336 55.1689 157.504C55.6969 156.672 56.4249 156.024 57.3529 155.56C58.2969 155.096 59.3769 154.864 60.5929 154.864C61.8249 154.864 62.8969 155.104 63.8089 155.584C64.7369 156.048 65.4569 156.704 65.9689 157.552C66.4809 158.384 66.7369 159.368 66.7369 160.504V166.312C66.7369 167.624 66.4729 168.728 65.9449 169.624C65.4329 170.52 64.7049 171.2 63.7609 171.664C62.8329 172.112 61.7449 172.336 60.4969 172.336ZM60.5689 164.08C61.3049 164.08 61.9449 163.936 62.4889 163.648C63.0329 163.36 63.4569 162.968 63.7609 162.472C64.0649 161.96 64.2169 161.36 64.2169 160.672V160.48C64.2169 159.44 63.8809 158.624 63.2089 158.032C62.5529 157.424 61.6729 157.12 60.5689 157.12C59.4649 157.12 58.5769 157.424 57.9049 158.032C57.2489 158.624 56.9209 159.44 56.9209 160.48V160.672C56.9209 161.36 57.0649 161.96 57.3529 162.472C57.6569 162.968 58.0809 163.36 58.6249 163.648C59.1849 163.936 59.8329 164.08 60.5689 164.08ZM77.2545 172V168.568H68.7585V165.64L75.1905 155.2H79.7745V166.336H82.6065V168.568H79.7745V172H77.2545ZM71.2065 166.336H77.2545V156.784H76.8705L71.2065 166V166.336ZM85.0277 175.264V173.848H85.8437C86.4997 173.848 86.8277 173.52 86.8277 172.864V172.096H86.4677C85.9077 172.096 85.4437 171.928 85.0757 171.592C84.7077 171.256 84.5237 170.832 84.5237 170.32C84.5237 169.76 84.7077 169.312 85.0757 168.976C85.4437 168.624 85.9077 168.448 86.4677 168.448C87.0277 168.448 87.4837 168.632 87.8357 169C88.2037 169.352 88.3877 169.816 88.3877 170.392V172.888C88.3877 174.472 87.5957 175.264 86.0117 175.264H85.0277ZM90.8942 172V170.104C90.8942 168.936 91.0942 167.976 91.4942 167.224C91.8942 166.472 92.4622 165.864 93.1982 165.4C93.9502 164.92 94.8542 164.52 95.9102 164.2L97.3742 163.744C98.0302 163.536 98.5902 163.28 99.0542 162.976C99.5342 162.672 99.9022 162.296 100.158 161.848C100.414 161.384 100.542 160.848 100.542 160.24V160.144C100.542 159.2 100.222 158.464 99.5822 157.936C98.9422 157.392 98.1022 157.12 97.0622 157.12C95.9902 157.12 95.1182 157.408 94.4462 157.984C93.7902 158.56 93.4622 159.408 93.4622 160.528V160.912H90.9662V160.552C90.9662 159.336 91.2302 158.312 91.7582 157.48C92.2862 156.632 93.0142 155.984 93.9422 155.536C94.8702 155.088 95.9102 154.864 97.0622 154.864C98.2142 154.864 99.2382 155.08 100.134 155.512C101.046 155.944 101.758 156.552 102.27 157.336C102.798 158.12 103.062 159.04 103.062 160.096V160.312C103.062 161.4 102.846 162.304 102.414 163.024C101.982 163.744 101.382 164.336 100.614 164.8C99.8622 165.264 98.9902 165.656 97.9982 165.976L96.5822 166.408C95.8302 166.632 95.2222 166.88 94.7582 167.152C94.3102 167.408 93.9742 167.72 93.7502 168.088C93.5422 168.456 93.4382 168.928 93.4382 169.504V169.744H102.918V172H90.8942ZM111.334 172.336C110.07 172.336 108.974 172.104 108.046 171.64C107.118 171.176 106.398 170.52 105.886 169.672C105.39 168.824 105.142 167.84 105.142 166.72V166.456H107.71V166.696C107.71 167.72 108.022 168.544 108.646 169.168C109.286 169.776 110.174 170.08 111.31 170.08C112.478 170.08 113.382 169.76 114.022 169.12C114.662 168.48 114.982 167.616 114.982 166.528V166.312C114.982 165.272 114.662 164.44 114.022 163.816C113.398 163.192 112.598 162.88 111.622 162.88C111.078 162.88 110.622 162.968 110.254 163.144C109.902 163.304 109.614 163.504 109.39 163.744C109.182 163.984 109.006 164.216 108.862 164.44H105.67V155.2H116.926V157.48H108.19V162.424H108.574C108.734 162.152 108.958 161.896 109.246 161.656C109.55 161.4 109.942 161.192 110.422 161.032C110.902 160.872 111.478 160.792 112.15 160.792C113.142 160.792 114.038 161.008 114.838 161.44C115.654 161.856 116.302 162.48 116.782 163.312C117.262 164.128 117.502 165.12 117.502 166.288V166.552C117.502 167.72 117.254 168.736 116.758 169.6C116.262 170.464 115.55 171.136 114.622 171.616C113.71 172.096 112.614 172.336 111.334 172.336ZM127.645 172V168.568H119.149V165.64L125.581 155.2H130.165V166.336H132.997V168.568H130.165V172H127.645ZM121.597 166.336H127.645V156.784H127.261L121.597 166V166.336ZM135.418 175.264V173.848H136.234C136.89 173.848 137.218 173.52 137.218 172.864V172.096H136.858C136.298 172.096 135.834 171.928 135.466 171.592C135.098 171.256 134.914 170.832 134.914 170.32C134.914 169.76 135.098 169.312 135.466 168.976C135.834 168.624 136.298 168.448 136.858 168.448C137.418 168.448 137.874 168.632 138.226 169C138.594 169.352 138.778 169.816 138.778 170.392V172.888C138.778 174.472 137.986 175.264 136.402 175.264H135.418ZM147.533 172.336C145.581 172.336 144.021 171.784 142.853 170.68C141.701 169.56 141.125 167.88 141.125 165.64V161.56C141.125 159.368 141.701 157.704 142.853 156.568C144.021 155.432 145.581 154.864 147.533 154.864C149.501 154.864 151.061 155.432 152.213 156.568C153.381 157.704 153.965 159.368 153.965 161.56V165.64C153.965 167.88 153.381 169.56 152.213 170.68C151.061 171.784 149.501 172.336 147.533 172.336ZM147.533 170.08C148.861 170.08 149.845 169.704 150.485 168.952C151.125 168.184 151.445 167.112 151.445 165.736V161.416C151.445 160.04 151.101 158.984 150.413 158.248C149.725 157.496 148.765 157.12 147.533 157.12C146.285 157.12 145.325 157.504 144.653 158.272C143.981 159.024 143.645 160.072 143.645 161.416V165.736C143.645 167.144 143.965 168.224 144.605 168.976C145.261 169.712 146.237 170.08 147.533 170.08ZM156.425 172V170.104C156.425 168.936 156.625 167.976 157.025 167.224C157.425 166.472 157.993 165.864 158.729 165.4C159.481 164.92 160.385 164.52 161.441 164.2L162.905 163.744C163.561 163.536 164.121 163.28 164.585 162.976C165.065 162.672 165.433 162.296 165.689 161.848C165.945 161.384 166.073 160.848 166.073 160.24V160.144C166.073 159.2 165.753 158.464 165.113 157.936C164.473 157.392 163.633 157.12 162.593 157.12C161.521 157.12 160.649 157.408 159.977 157.984C159.321 158.56 158.993 159.408 158.993 160.528V160.912H156.497V160.552C156.497 159.336 156.761 158.312 157.289 157.48C157.817 156.632 158.545 155.984 159.473 155.536C160.401 155.088 161.441 154.864 162.593 154.864C163.745 154.864 164.769 155.08 165.665 155.512C166.577 155.944 167.289 156.552 167.801 157.336C168.329 158.12 168.593 159.04 168.593 160.096V160.312C168.593 161.4 168.377 162.304 167.945 163.024C167.513 163.744 166.913 164.336 166.145 164.8C165.393 165.264 164.521 165.656 163.529 165.976L162.113 166.408C161.361 166.632 160.753 166.88 160.289 167.152C159.841 167.408 159.505 167.72 159.281 168.088C159.073 168.456 158.969 168.928 158.969 169.504V169.744H168.449V172H156.425ZM170.769 172V170.104C170.769 168.936 170.969 167.976 171.369 167.224C171.769 166.472 172.337 165.864 173.073 165.4C173.825 164.92 174.729 164.52 175.785 164.2L177.249 163.744C177.905 163.536 178.465 163.28 178.929 162.976C179.409 162.672 179.777 162.296 180.033 161.848C180.289 161.384 180.417 160.848 180.417 160.24V160.144C180.417 159.2 180.097 158.464 179.457 157.936C178.817 157.392 177.977 157.12 176.937 157.12C175.865 157.12 174.993 157.408 174.321 157.984C173.665 158.56 173.337 159.408 173.337 160.528V160.912H170.841V160.552C170.841 159.336 171.105 158.312 171.633 157.48C172.161 156.632 172.889 155.984 173.817 155.536C174.745 155.088 175.785 154.864 176.937 154.864C178.089 154.864 179.113 155.08 180.009 155.512C180.921 155.944 181.633 156.552 182.145 157.336C182.673 158.12 182.937 159.04 182.937 160.096V160.312C182.937 161.4 182.721 162.304 182.289 163.024C181.857 163.744 181.257 164.336 180.489 164.8C179.737 165.264 178.865 165.656 177.873 165.976L176.457 166.408C175.705 166.632 175.097 166.88 174.633 167.152C174.185 167.408 173.849 167.72 173.625 168.088C173.417 168.456 173.313 168.928 173.313 169.504V169.744H182.793V172H170.769ZM185.809 175.264V173.848H186.625C187.281 173.848 187.609 173.52 187.609 172.864V172.096H187.249C186.689 172.096 186.225 171.928 185.857 171.592C185.489 171.256 185.305 170.832 185.305 170.32C185.305 169.76 185.489 169.312 185.857 168.976C186.225 168.624 186.689 168.448 187.249 168.448C187.809 168.448 188.265 168.632 188.617 169C188.985 169.352 189.169 169.816 189.169 170.392V172.888C189.169 174.472 188.377 175.264 186.793 175.264H185.809ZM197.819 172.336C196.587 172.336 195.491 172.112 194.531 171.664C193.571 171.216 192.819 170.568 192.275 169.72C191.747 168.872 191.483 167.864 191.483 166.696V166.264H194.003V166.648C194.003 167.704 194.347 168.544 195.035 169.168C195.739 169.776 196.667 170.08 197.819 170.08C198.971 170.08 199.867 169.792 200.507 169.216C201.147 168.64 201.467 167.912 201.467 167.032V166.816C201.467 166.192 201.315 165.688 201.011 165.304C200.707 164.92 200.299 164.64 199.787 164.464C199.275 164.272 198.699 164.176 198.059 164.176H195.011V161.272L200.915 157.792V157.456H191.891V155.2H203.651V158.608L198.011 161.968V162.304H199.043C199.891 162.304 200.691 162.464 201.443 162.784C202.195 163.104 202.803 163.592 203.267 164.248C203.747 164.904 203.987 165.736 203.987 166.744V167.032C203.987 168.104 203.731 169.04 203.219 169.84C202.707 170.624 201.987 171.24 201.059 171.688C200.131 172.12 199.051 172.336 197.819 172.336Z" fill="#FAFAFA"/>
<path d="M212.248 184.336C210.984 184.336 209.888 184.104 208.96 183.64C208.032 183.176 207.312 182.52 206.8 181.672C206.304 180.824 206.056 179.84 206.056 178.72V178.456H208.624V178.696C208.624 179.72 208.936 180.544 209.56 181.168C210.2 181.776 211.088 182.08 212.224 182.08C213.392 182.08 214.296 181.76 214.936 181.12C215.576 180.48 215.896 179.616 215.896 178.528V178.312C215.896 177.272 215.576 176.44 214.936 175.816C214.312 175.192 213.512 174.88 212.536 174.88C211.992 174.88 211.536 174.968 211.168 175.144C210.816 175.304 210.528 175.504 210.304 175.744C210.096 175.984 209.92 176.216 209.776 176.44H206.584V167.2H217.84V169.48H209.104V174.424H209.488C209.648 174.152 209.872 173.896 210.16 173.656C210.464 173.4 210.856 173.192 211.336 173.032C211.816 172.872 212.392 172.792 213.064 172.792C214.056 172.792 214.952 173.008 215.752 173.44C216.568 173.856 217.216 174.48 217.696 175.312C218.176 176.128 218.416 177.12 218.416 178.288V178.552C218.416 179.72 218.168 180.736 217.672 181.6C217.176 182.464 216.464 183.136 215.536 183.616C214.624 184.096 213.528 184.336 212.248 184.336Z" fill="url(#paint8_linear_161_11605)"/>
<path d="M212.464 163.336C211.248 163.336 210.176 163.104 209.248 162.64C208.32 162.16 207.6 161.496 207.088 160.648C206.576 159.8 206.32 158.816 206.32 157.696V151.888C206.32 150.576 206.576 149.472 207.088 148.576C207.616 147.68 208.352 147.008 209.296 146.56C210.24 146.096 211.336 145.864 212.584 145.864C213.816 145.864 214.88 146.08 215.776 146.512C216.672 146.928 217.36 147.528 217.84 148.312C218.32 149.08 218.56 149.984 218.56 151.024H216.016C216.016 150.192 215.736 149.504 215.176 148.96C214.632 148.4 213.768 148.12 212.584 148.12C211.384 148.12 210.456 148.44 209.8 149.08C209.16 149.704 208.84 150.576 208.84 151.696V153.712H209.224C209.496 153.328 209.936 152.96 210.544 152.608C211.168 152.256 212.048 152.08 213.184 152.08C214.176 152.08 215.088 152.296 215.92 152.728C216.752 153.16 217.416 153.776 217.912 154.576C218.424 155.376 218.68 156.344 218.68 157.48V157.768C218.68 158.872 218.416 159.848 217.888 160.696C217.36 161.528 216.624 162.176 215.68 162.64C214.752 163.104 213.68 163.336 212.464 163.336ZM212.488 161.08C213.608 161.08 214.496 160.776 215.152 160.168C215.824 159.56 216.16 158.744 216.16 157.72V157.528C216.16 156.84 216.008 156.248 215.704 155.752C215.4 155.24 214.968 154.84 214.408 154.552C213.864 154.264 213.224 154.12 212.488 154.12C211.768 154.12 211.128 154.264 210.568 154.552C210.024 154.84 209.6 155.24 209.296 155.752C208.992 156.248 208.84 156.84 208.84 157.528V157.72C208.84 158.744 209.168 159.56 209.824 160.168C210.496 160.776 211.384 161.08 212.488 161.08Z" fill="url(#paint9_linear_161_11605)"/>
</g>
<path d="M27.514 195.026V192.898H25.414V191.302H27.514V189.174H29.166V191.302H31.266V192.898H29.166V195.026H27.514ZM36.8816 197.196C36.135 197.196 35.4723 197.084 34.8936 196.86C34.3243 196.636 33.8763 196.314 33.5496 195.894C33.2323 195.465 33.0736 194.961 33.0736 194.382V194.214C33.0736 193.766 33.153 193.397 33.3116 193.108C33.4703 192.809 33.6663 192.576 33.8996 192.408C34.1423 192.24 34.371 192.123 34.5856 192.058V191.806C34.371 191.731 34.1563 191.61 33.9416 191.442C33.727 191.274 33.5496 191.05 33.4096 190.77C33.279 190.49 33.2136 190.154 33.2136 189.762V189.594C33.2136 189.081 33.363 188.633 33.6616 188.25C33.9696 187.858 34.399 187.555 34.9496 187.34C35.5003 187.116 36.1443 187.004 36.8816 187.004C37.619 187.004 38.263 187.116 38.8136 187.34C39.3643 187.555 39.789 187.858 40.0876 188.25C40.3956 188.633 40.5496 189.081 40.5496 189.594V189.762C40.5496 190.154 40.4796 190.49 40.3396 190.77C40.209 191.05 40.0363 191.274 39.8216 191.442C39.6163 191.61 39.4016 191.731 39.1776 191.806V192.058C39.4016 192.123 39.6303 192.24 39.8636 192.408C40.097 192.576 40.293 192.809 40.4516 193.108C40.6103 193.397 40.6896 193.766 40.6896 194.214V194.382C40.6896 194.961 40.5263 195.465 40.1996 195.894C39.8823 196.314 39.4343 196.636 38.8556 196.86C38.2863 197.084 37.6283 197.196 36.8816 197.196ZM36.8816 195.6C37.5256 195.6 38.0203 195.479 38.3656 195.236C38.7203 194.984 38.8976 194.653 38.8976 194.242V194.13C38.8976 193.719 38.725 193.393 38.3796 193.15C38.0436 192.898 37.5443 192.772 36.8816 192.772C36.2283 192.772 35.729 192.898 35.3836 193.15C35.0383 193.393 34.8656 193.719 34.8656 194.13V194.242C34.8656 194.653 35.0383 194.984 35.3836 195.236C35.7383 195.479 36.2376 195.6 36.8816 195.6ZM36.8816 191.176C37.479 191.176 37.941 191.069 38.2676 190.854C38.5943 190.639 38.7576 190.336 38.7576 189.944V189.832C38.7576 189.44 38.5896 189.137 38.2536 188.922C37.9176 188.707 37.4603 188.6 36.8816 188.6C36.303 188.6 35.8456 188.707 35.5096 188.922C35.1736 189.137 35.0056 189.44 35.0056 189.832V189.944C35.0056 190.336 35.169 190.639 35.4956 190.854C35.8223 191.069 36.2843 191.176 36.8816 191.176ZM43.1482 197.182L42.0842 196.328L49.6162 187.018L50.6802 187.872L43.1482 197.182ZM49.0562 197.14C48.3468 197.14 47.7915 196.953 47.3902 196.58C46.9888 196.197 46.7882 195.679 46.7882 195.026V194.928C46.7882 194.265 46.9888 193.747 47.3902 193.374C47.7915 192.991 48.3468 192.8 49.0562 192.8C49.7468 192.8 50.2975 192.991 50.7082 193.374C51.1188 193.747 51.3242 194.265 51.3242 194.928V195.026C51.3242 195.679 51.1235 196.197 50.7222 196.58C50.3208 196.953 49.7655 197.14 49.0562 197.14ZM49.0562 195.992C49.3268 195.992 49.5368 195.908 49.6862 195.74C49.8448 195.572 49.9242 195.353 49.9242 195.082V194.858C49.9242 194.587 49.8448 194.368 49.6862 194.2C49.5368 194.032 49.3268 193.948 49.0562 193.948C48.7855 193.948 48.5708 194.032 48.4122 194.2C48.2628 194.368 48.1882 194.587 48.1882 194.858V195.082C48.1882 195.353 48.2628 195.572 48.4122 195.74C48.5708 195.908 48.7855 195.992 49.0562 195.992ZM43.7082 191.4C42.9988 191.4 42.4435 191.213 42.0422 190.84C41.6408 190.457 41.4402 189.939 41.4402 189.286V189.188C41.4402 188.525 41.6408 188.007 42.0422 187.634C42.4435 187.251 42.9988 187.06 43.7082 187.06C44.3988 187.06 44.9495 187.251 45.3602 187.634C45.7708 188.007 45.9762 188.525 45.9762 189.188V189.286C45.9762 189.939 45.7755 190.457 45.3742 190.84C44.9728 191.213 44.4175 191.4 43.7082 191.4ZM43.7082 190.252C43.9788 190.252 44.1888 190.168 44.3382 190C44.4968 189.832 44.5762 189.613 44.5762 189.342V189.118C44.5762 188.847 44.4968 188.628 44.3382 188.46C44.1888 188.292 43.9788 188.208 43.7082 188.208C43.4375 188.208 43.2228 188.292 43.0642 188.46C42.9148 188.628 42.8402 188.847 42.8402 189.118V189.342C42.8402 189.613 42.9148 189.832 43.0642 190C43.2228 190.168 43.4375 190.252 43.7082 190.252Z" fill="#21C912"/>
<path d="M56.2002 197V188.6H57.2082V197H56.2002ZM59.1659 197V191.132H60.0899V192.128H60.2579C60.3859 191.848 60.6019 191.596 60.9059 191.372C61.2179 191.14 61.6739 191.024 62.2739 191.024C62.7139 191.024 63.1059 191.116 63.4499 191.3C63.8019 191.484 64.0819 191.756 64.2899 192.116C64.4979 192.476 64.6019 192.92 64.6019 193.448V197H63.6539V193.52C63.6539 192.936 63.5059 192.512 63.2099 192.248C62.9219 191.984 62.5299 191.852 62.0339 191.852C61.4659 191.852 61.0019 192.036 60.6419 192.404C60.2899 192.772 60.1139 193.32 60.1139 194.048V197H59.1659ZM69.5713 197V188.6H70.5793V196.088H74.8273V197H69.5713ZM77.9581 197.168C77.5501 197.168 77.1781 197.096 76.8421 196.952C76.5061 196.808 76.2421 196.6 76.0501 196.328C75.8581 196.056 75.7621 195.724 75.7621 195.332C75.7621 194.932 75.8581 194.604 76.0501 194.348C76.2421 194.084 76.5061 193.888 76.8421 193.76C77.1781 193.624 77.5541 193.556 77.9701 193.556H79.9501V193.124C79.9501 192.708 79.8261 192.38 79.5781 192.14C79.3381 191.9 78.9781 191.78 78.4981 191.78C78.0261 191.78 77.6581 191.896 77.3941 192.128C77.1301 192.352 76.9501 192.656 76.8541 193.04L75.9661 192.752C76.0621 192.424 76.2141 192.128 76.4221 191.864C76.6301 191.592 76.9061 191.376 77.2501 191.216C77.6021 191.048 78.0221 190.964 78.5101 190.964C79.2621 190.964 79.8461 191.16 80.2621 191.552C80.6781 191.936 80.8861 192.48 80.8861 193.184V195.836C80.8861 196.076 80.9981 196.196 81.2221 196.196H81.7621V197H80.9341C80.6701 197 80.4581 196.928 80.2981 196.784C80.1381 196.632 80.0581 196.432 80.0581 196.184V196.124H79.9141C79.8261 196.276 79.7061 196.436 79.5541 196.604C79.4101 196.764 79.2101 196.896 78.9541 197C78.6981 197.112 78.3661 197.168 77.9581 197.168ZM78.0661 196.352C78.6261 196.352 79.0781 196.188 79.4221 195.86C79.7741 195.524 79.9501 195.056 79.9501 194.456V194.324H78.0061C77.6301 194.324 77.3181 194.408 77.0701 194.576C76.8301 194.736 76.7101 194.98 76.7101 195.308C76.7101 195.636 76.8341 195.892 77.0821 196.076C77.3381 196.26 77.6661 196.352 78.0661 196.352ZM85.3776 197.168C84.6496 197.168 84.0336 197 83.5296 196.664C83.0336 196.328 82.7336 195.796 82.6296 195.068L83.5296 194.864C83.5936 195.248 83.7136 195.552 83.8896 195.776C84.0656 195.992 84.2816 196.148 84.5376 196.244C84.8016 196.332 85.0816 196.376 85.3776 196.376C85.8176 196.376 86.1656 196.288 86.4216 196.112C86.6776 195.936 86.8056 195.7 86.8056 195.404C86.8056 195.1 86.6816 194.888 86.4336 194.768C86.1936 194.64 85.8616 194.536 85.4376 194.456L84.9456 194.372C84.5696 194.308 84.2256 194.208 83.9136 194.072C83.6016 193.936 83.3536 193.752 83.1696 193.52C82.9856 193.288 82.8936 192.996 82.8936 192.644C82.8936 192.116 83.0976 191.704 83.5056 191.408C83.9136 191.112 84.4536 190.964 85.1256 190.964C85.7896 190.964 86.3256 191.116 86.7336 191.42C87.1496 191.716 87.4176 192.136 87.5376 192.68L86.6496 192.908C86.5776 192.484 86.4056 192.188 86.1336 192.02C85.8616 191.844 85.5256 191.756 85.1256 191.756C84.7256 191.756 84.4096 191.832 84.1776 191.984C83.9456 192.128 83.8296 192.344 83.8296 192.632C83.8296 192.912 83.9376 193.12 84.1536 193.256C84.3776 193.384 84.6736 193.48 85.0416 193.544L85.5336 193.628C85.9496 193.7 86.3216 193.8 86.6496 193.928C86.9856 194.048 87.2496 194.224 87.4416 194.456C87.6416 194.688 87.7416 194.992 87.7416 195.368C87.7416 195.944 87.5256 196.388 87.0936 196.7C86.6696 197.012 86.0976 197.168 85.3776 197.168ZM91.3728 197C91.0368 197 90.7768 196.908 90.5928 196.724C90.4168 196.54 90.3288 196.288 90.3288 195.968V191.96H88.5648V191.132H90.3288V189.044H91.2768V191.132H93.1968V191.96H91.2768V195.824C91.2768 196.064 91.3928 196.184 91.6248 196.184H92.9328V197H91.3728ZM98.6424 197V196.7C98.6424 196.42 98.6664 196.184 98.7144 195.992C98.7624 195.8 98.8544 195.572 98.9904 195.308L102.194 189.608V189.476H97.2024V188.6H103.214V189.752L99.8664 195.752C99.7704 195.92 99.7024 196.072 99.6624 196.208C99.6304 196.344 99.6144 196.516 99.6144 196.724V197H98.6424ZM107.238 197V196.1H108.414V189.5H107.238V188.6H110.514C111.618 188.6 112.47 188.88 113.07 189.44C113.678 190 113.982 190.86 113.982 192.02V193.58C113.982 194.748 113.678 195.612 113.07 196.172C112.47 196.724 111.618 197 110.514 197H107.238ZM109.422 196.088H110.514C111.33 196.088 111.946 195.888 112.362 195.488C112.778 195.088 112.986 194.468 112.986 193.628V191.984C112.986 191.128 112.778 190.504 112.362 190.112C111.946 189.72 111.33 189.524 110.514 189.524H109.422V196.088ZM117.427 197.168C117.019 197.168 116.647 197.096 116.311 196.952C115.975 196.808 115.711 196.6 115.519 196.328C115.327 196.056 115.231 195.724 115.231 195.332C115.231 194.932 115.327 194.604 115.519 194.348C115.711 194.084 115.975 193.888 116.311 193.76C116.647 193.624 117.023 193.556 117.439 193.556H119.419V193.124C119.419 192.708 119.295 192.38 119.047 192.14C118.807 191.9 118.447 191.78 117.967 191.78C117.495 191.78 117.127 191.896 116.863 192.128C116.599 192.352 116.419 192.656 116.323 193.04L115.435 192.752C115.531 192.424 115.683 192.128 115.891 191.864C116.099 191.592 116.375 191.376 116.719 191.216C117.071 191.048 117.491 190.964 117.979 190.964C118.731 190.964 119.315 191.16 119.731 191.552C120.147 191.936 120.355 192.48 120.355 193.184V195.836C120.355 196.076 120.467 196.196 120.691 196.196H121.231V197H120.403C120.139 197 119.927 196.928 119.767 196.784C119.607 196.632 119.527 196.432 119.527 196.184V196.124H119.383C119.295 196.276 119.175 196.436 119.023 196.604C118.879 196.764 118.679 196.896 118.423 197C118.167 197.112 117.835 197.168 117.427 197.168ZM117.535 196.352C118.095 196.352 118.547 196.188 118.891 195.86C119.243 195.524 119.419 195.056 119.419 194.456V194.324H117.475C117.099 194.324 116.787 194.408 116.539 194.576C116.299 194.736 116.179 194.98 116.179 195.308C116.179 195.636 116.303 195.892 116.551 196.076C116.807 196.26 117.135 196.352 117.535 196.352ZM123.085 199.4V198.56H126.445C126.677 198.56 126.793 198.44 126.793 198.2V196.064H126.625C126.545 196.232 126.421 196.4 126.253 196.568C126.093 196.728 125.881 196.86 125.617 196.964C125.353 197.06 125.021 197.108 124.621 197.108C124.197 197.108 123.805 197.016 123.445 196.832C123.093 196.648 122.813 196.376 122.605 196.016C122.405 195.656 122.305 195.216 122.305 194.696V191.132H123.253V194.624C123.253 195.2 123.397 195.62 123.685 195.884C123.981 196.148 124.377 196.28 124.873 196.28C125.433 196.28 125.893 196.096 126.253 195.728C126.613 195.36 126.793 194.812 126.793 194.084V191.132H127.741V198.368C127.741 198.688 127.649 198.94 127.465 199.124C127.289 199.308 127.029 199.4 126.685 199.4H123.085ZM132.089 197.168C131.361 197.168 130.745 197 130.241 196.664C129.745 196.328 129.445 195.796 129.341 195.068L130.241 194.864C130.305 195.248 130.425 195.552 130.601 195.776C130.777 195.992 130.993 196.148 131.249 196.244C131.513 196.332 131.793 196.376 132.089 196.376C132.529 196.376 132.877 196.288 133.133 196.112C133.389 195.936 133.517 195.7 133.517 195.404C133.517 195.1 133.393 194.888 133.145 194.768C132.905 194.64 132.573 194.536 132.149 194.456L131.657 194.372C131.281 194.308 130.937 194.208 130.625 194.072C130.313 193.936 130.065 193.752 129.881 193.52C129.697 193.288 129.605 192.996 129.605 192.644C129.605 192.116 129.809 191.704 130.217 191.408C130.625 191.112 131.165 190.964 131.837 190.964C132.501 190.964 133.037 191.116 133.445 191.42C133.861 191.716 134.129 192.136 134.249 192.68L133.361 192.908C133.289 192.484 133.117 192.188 132.845 192.02C132.573 191.844 132.237 191.756 131.837 191.756C131.437 191.756 131.121 191.832 130.889 191.984C130.657 192.128 130.541 192.344 130.541 192.632C130.541 192.912 130.649 193.12 130.865 193.256C131.089 193.384 131.385 193.48 131.753 193.544L132.245 193.628C132.661 193.7 133.033 193.8 133.361 193.928C133.697 194.048 133.961 194.224 134.153 194.456C134.353 194.688 134.453 194.992 134.453 195.368C134.453 195.944 134.237 196.388 133.805 196.7C133.381 197.012 132.809 197.168 132.089 197.168Z" fill="#999999"/>
</g>
<rect x="0.5" y="60.5" width="294" height="147" rx="19.5" stroke="white" stroke-opacity="0.2"/>
<defs>
<linearGradient id="paint0_linear_161_11605" x1="242.868" y1="0" x2="242.868" y2="148" gradientUnits="userSpaceOnUse">
<stop stop-color="#2E335A"/>
<stop offset="1" stop-color="#1C1B33" stop-opacity="0.2"/>
</linearGradient>
<radialGradient id="paint1_radial_161_11605" cx="0" cy="0" r="1" gradientUnits="userSpaceOnUse" gradientTransform="translate(212.5 -22.9357) rotate(90) scale(175.263 431.096)">
<stop stop-color="white" stop-opacity="0.8"/>
<stop offset="1" stop-color="white" stop-opacity="0"/>
</radialGradient>
<linearGradient id="paint2_linear_161_11605" x1="209.868" y1="30" x2="209.868" y2="178" gradientUnits="userSpaceOnUse">
<stop stop-color="#2E335A"/>
<stop offset="1" stop-color="#1C1B33" stop-opacity="0.2"/>
</linearGradient>
<radialGradient id="paint3_radial_161_11605" cx="0" cy="0" r="1" gradientUnits="userSpaceOnUse" gradientTransform="translate(179.5 7.06434) rotate(90) scale(175.263 431.096)">
<stop stop-color="white" stop-opacity="0.8"/>
<stop offset="1" stop-color="white" stop-opacity="0"/>
</radialGradient>
<linearGradient id="paint4_linear_161_11605" x1="177.868" y1="60" x2="177.868" y2="208" gradientUnits="userSpaceOnUse">
<stop stop-color="#2E335A"/>
<stop offset="1" stop-color="#1C1B33" stop-opacity="0.2"/>
</linearGradient>
<radialGradient id="paint5_radial_161_11605" cx="0" cy="0" r="1" gradientUnits="userSpaceOnUse" gradientTransform="translate(147.5 37.0643) rotate(90) scale(175.263 431.096)">
<stop stop-color="white" stop-opacity="0.8"/>
<stop offset="1" stop-color="white" stop-opacity="0"/>
</radialGradient>
<radialGradient id="paint6_radial_161_11605" cx="0" cy="0" r="1" gradientUnits="userSpaceOnUse" gradientTransform="translate(401.5 134) rotate(90) scale(101.389)">
<stop stop-color="white"/>
<stop offset="0.614908" stop-color="white" stop-opacity="0.12"/>
<stop offset="0.773664" stop-color="white" stop-opacity="0.15"/>
<stop offset="1" stop-color="white" stop-opacity="0"/>
</radialGradient>
<radialGradient id="paint7_radial_161_11605" cx="0" cy="0" r="1" gradientUnits="userSpaceOnUse" gradientTransform="translate(401.781 133.718) rotate(90) scale(113.907)">
<stop stop-color="white"/>
<stop offset="0.488331" stop-color="white" stop-opacity="0"/>
<stop offset="0.698629" stop-color="white" stop-opacity="0.16"/>
<stop offset="1" stop-color="white" stop-opacity="0"/>
</radialGradient>
<linearGradient id="paint8_linear_161_11605" x1="212.5" y1="170" x2="212.5" y2="194" gradientUnits="userSpaceOnUse">
<stop stop-color="white" stop-opacity="0"/>
<stop offset="1" stop-color="white"/>
</linearGradient>
<linearGradient id="paint9_linear_161_11605" x1="212.5" y1="147" x2="212.5" y2="170" gradientUnits="userSpaceOnUse">
<stop stop-color="white" stop-opacity="0"/>
<stop offset="1" stop-color="white"/>
</linearGradient>
<clipPath id="clip0_161_11605">
<rect x="32" y="30" width="295" height="148" rx="20" fill="white"/>
</clipPath>
<clipPath id="clip1_161_11605">
<rect y="60" width="295" height="148" rx="20" fill="white"/>
</clipPath>
<clipPath id="clip2_161_11605">
<rect width="195" height="31" fill="white" transform="translate(24 148)"/>
</clipPath>
</defs>
</svg>
