<svg width="520" height="520" fill="none" xmlns="http://www.w3.org/2000/svg"><g clip-path="url(#clip0_161_6369)" filter="url(#filter0_d_161_6369)"><path d="M296 200H224C210.745 200 200 210.745 200 224V296C200 309.255 210.745 320 224 320H296C309.255 320 320 309.255 320 296V224C320 210.745 309.255 200 296 200Z" fill="url(#paint0_linear_161_6369)"/><path fill-rule="evenodd" clip-rule="evenodd" d="M296 200H224C210.746 200 200 210.746 200 224V296C200 309.254 210.746 320 224 320H296C309.254 320 320 309.254 320 296V224C320 210.746 309.254 200 296 200ZM203 224C203 212.402 212.402 203 224 203H296C307.598 203 317 212.402 317 224V296C317 307.598 307.598 317 296 317H224C212.402 317 203 307.598 203 296V224Z" fill="#C5BEEE"/><path opacity="0.4" d="M320 296H200V299H320V296Z" fill="url(#paint1_linear_161_6369)"/><path opacity="0.4" d="M320 221H200V224H320V221Z" fill="url(#paint2_linear_161_6369)"/><path opacity="0.4" d="M224 320V200H221V320H224Z" fill="url(#paint3_linear_161_6369)"/><path opacity="0.4" d="M299 320V200H296V320H299Z" fill="url(#paint4_linear_161_6369)"/><path fill-rule="evenodd" clip-rule="evenodd" d="M296 200H224C210.746 200 200 210.746 200 224V296C200 309.254 210.746 320 224 320H296C309.254 320 320 309.254 320 296V224C320 210.746 309.254 200 296 200ZM203 224C203 212.402 212.402 203 224 203H296C307.598 203 317 212.402 317 224V296C317 307.598 307.598 317 296 317H224C212.402 317 203 307.598 203 296V224Z" fill="#E3FED3"/><g filter="url(#filter1_d_161_6369)"><path d="M246.81 256.089L250.405 271.668C249.224 272.448 248.282 273.539 247.681 274.821C247.08 276.102 246.844 277.525 247 278.931C247.155 280.338 247.695 281.675 248.561 282.794C249.426 283.914 250.584 284.773 251.907 285.277C253.229 285.782 254.665 285.911 256.056 285.652C257.448 285.393 258.741 284.756 259.793 283.81C260.845 282.863 261.617 281.645 262.022 280.289C262.426 278.933 262.45 277.491 262.088 276.123L276.873 261.844C278.274 262.419 279.808 262.597 281.304 262.357C282.8 262.117 284.201 261.469 285.352 260.484C286.503 259.499 287.361 258.216 287.83 256.775C288.299 255.335 288.362 253.792 288.011 252.318C287.66 250.845 286.909 249.496 285.841 248.421C284.773 247.346 283.429 246.587 281.958 246.227C280.486 245.867 278.944 245.919 277.5 246.379C276.056 246.839 274.767 247.689 273.775 248.834L257.95 245.181C257.943 243.042 257.306 240.953 256.118 239.175C254.93 237.396 253.245 236.007 251.272 235.181C249.299 234.356 247.127 234.13 245.026 234.532C242.926 234.934 240.99 235.947 239.462 237.443C237.934 238.94 236.881 240.853 236.435 242.945C235.988 245.036 236.169 247.213 236.953 249.203C237.737 251.193 239.09 252.907 240.843 254.132C242.597 255.357 244.672 256.037 246.81 256.089ZM253.876 270.434L250.444 255.557C252.037 255.037 253.489 254.157 254.686 252.984C255.883 251.811 256.792 250.378 257.344 248.795L272.024 252.182C271.689 253.486 271.679 254.853 271.995 256.162C272.311 257.472 272.944 258.684 273.837 259.692L260.248 272.814C259.44 271.955 258.444 271.294 257.34 270.881C256.235 270.469 255.05 270.316 253.876 270.434Z" fill="#F5F5F5"/></g><path d="M220 218C221.105 218 222 217.105 222 216C222 214.895 221.105 214 220 214C218.895 214 218 214.895 218 216C218 217.105 218.895 218 220 218Z" fill="#F5F5F5"/><path d="M220 284C221.105 284 222 283.105 222 282C222 280.895 221.105 280 220 280C218.895 280 218 280.895 218 282C218 283.105 218.895 284 220 284Z" fill="#F5F5F5"/><path d="M250 306C251.105 306 252 305.105 252 304C252 302.895 251.105 302 250 302C248.895 302 248 302.895 248 304C248 305.105 248.895 306 250 306Z" fill="#F5F5F5"/><path d="M298 306C299.105 306 300 305.105 300 304C300 302.895 299.105 302 298 302C296.895 302 296 302.895 296 304C296 305.105 296.895 306 298 306Z" fill="#F5F5F5"/><path d="M304 242C305.105 242 306 241.105 306 240C306 238.895 305.105 238 304 238C302.895 238 302 238.895 302 240C302 241.105 302.895 242 304 242Z" fill="#F5F5F5"/></g><defs><filter id="filter0_d_161_6369" x="0" y="0" width="520" height="520" filterUnits="userSpaceOnUse" color-interpolation-filters="sRGB"><feFlood flood-opacity="0" result="BackgroundImageFix"/><feColorMatrix in="SourceAlpha" type="matrix" values="0 0 0 0 0 0 0 0 0 0 0 0 0 0 0 0 0 0 127 0" result="hardAlpha"/><feOffset/><feGaussianBlur stdDeviation="100"/><feComposite in2="hardAlpha" operator="out"/><feColorMatrix type="matrix" values="0 0 0 0 0.589875 0 0 0 0 0.916667 0 0 0 0 0.389583 0 0 0 0.2 0"/><feBlend mode="normal" in2="BackgroundImageFix" result="effect1_dropShadow_161_6369"/><feBlend mode="normal" in="SourceGraphic" in2="effect1_dropShadow_161_6369" result="shape"/></filter><filter id="filter1_d_161_6369" x="215.195" y="216.338" width="94.0391" height="93.4453" filterUnits="userSpaceOnUse" color-interpolation-filters="sRGB"><feFlood flood-opacity="0" result="BackgroundImageFix"/><feColorMatrix in="SourceAlpha" type="matrix" values="0 0 0 0 0 0 0 0 0 0 0 0 0 0 0 0 0 0 127 0" result="hardAlpha"/><feOffset dy="3"/><feGaussianBlur stdDeviation="10.5"/><feComposite in2="hardAlpha" operator="out"/><feColorMatrix type="matrix" values="0 0 0 0 0.292279 0 0 0 0 0.72825 0 0 0 0 0.0250709 0 0 0 1 0"/><feBlend mode="normal" in2="BackgroundImageFix" result="effect1_dropShadow_161_6369"/><feBlend mode="normal" in="SourceGraphic" in2="effect1_dropShadow_161_6369" result="shape"/></filter><linearGradient id="paint0_linear_161_6369" x1="260" y1="200" x2="260" y2="320" gradientUnits="userSpaceOnUse"><stop stop-color="#C2FF9C"/><stop offset="1" stop-color="#357F08"/></linearGradient><linearGradient id="paint1_linear_161_6369" x1="320" y1="297.5" x2="200" y2="297.5" gradientUnits="userSpaceOnUse"><stop stop-color="#96EA63"/><stop offset="1" stop-color="#CCFCAF"/></linearGradient><linearGradient id="paint2_linear_161_6369" x1="320" y1="222.5" x2="200" y2="222.5" gradientUnits="userSpaceOnUse"><stop stop-color="#96EA63"/><stop offset="1" stop-color="#CCFCAF"/></linearGradient><linearGradient id="paint3_linear_161_6369" x1="222.5" y1="320" x2="222.5" y2="200" gradientUnits="userSpaceOnUse"><stop stop-color="#96EA63"/><stop offset="1" stop-color="#CCFCAF"/></linearGradient><linearGradient id="paint4_linear_161_6369" x1="297.5" y1="320" x2="297.5" y2="200" gradientUnits="userSpaceOnUse"><stop stop-color="#96EA63"/><stop offset="1" stop-color="#CCFCAF"/></linearGradient><clipPath id="clip0_161_6369"><rect width="120" height="120" fill="white" transform="translate(200 200)"/></clipPath></defs></svg>