<svg width="520" height="520" fill="none" xmlns="http://www.w3.org/2000/svg"><g clip-path="url(#clip0_161_7443)" filter="url(#filter0_d_161_7443)"><path d="M296 200H224C210.745 200 200 210.745 200 224V296C200 309.255 210.745 320 224 320H296C309.255 320 320 309.255 320 296V224C320 210.745 309.255 200 296 200Z" fill="url(#paint0_linear_161_7443)"/><path fill-rule="evenodd" clip-rule="evenodd" d="M296 200H224C210.746 200 200 210.746 200 224V296C200 309.254 210.746 320 224 320H296C309.254 320 320 309.254 320 296V224C320 210.746 309.254 200 296 200ZM203 224C203 212.402 212.402 203 224 203H296C307.598 203 317 212.402 317 224V296C317 307.598 307.598 317 296 317H224C212.402 317 203 307.598 203 296V224Z" fill="#C5BEEE"/><path opacity="0.4" d="M320 296H200V299H320V296Z" fill="url(#paint1_linear_161_7443)"/><path opacity="0.4" d="M320 221H200V224H320V221Z" fill="url(#paint2_linear_161_7443)"/><path opacity="0.4" d="M224 320V200H221V320H224Z" fill="url(#paint3_linear_161_7443)"/><path opacity="0.4" d="M299 320V200H296V320H299Z" fill="url(#paint4_linear_161_7443)"/><path fill-rule="evenodd" clip-rule="evenodd" d="M296 200H224C210.746 200 200 210.746 200 224V296C200 309.254 210.746 320 224 320H296C309.254 320 320 309.254 320 296V224C320 210.746 309.254 200 296 200ZM203 224C203 212.402 212.402 203 224 203H296C307.598 203 317 212.402 317 224V296C317 307.598 307.598 317 296 317H224C212.402 317 203 307.598 203 296V224Z" fill="#E3FED3"/><g filter="url(#filter1_d_161_7443)"><path d="M266.442 252.058C267.04 251.211 267.359 250.199 267.356 249.162C267.356 246.537 265.401 244.41 262.976 244.41H262.286C262.283 244.41 262.281 244.409 262.279 244.407C262.277 244.406 262.276 244.403 262.276 244.401V240.739C262.277 240.688 262.266 240.636 262.247 240.588C262.227 240.54 262.198 240.496 262.161 240.46C262.125 240.423 262.081 240.394 262.033 240.374C261.985 240.354 261.934 240.344 261.882 240.344H260.631C260.579 240.344 260.528 240.354 260.48 240.374C260.432 240.394 260.389 240.423 260.352 240.46C260.315 240.496 260.286 240.54 260.266 240.588C260.247 240.636 260.237 240.688 260.237 240.739V244.401C260.237 244.403 260.236 244.406 260.234 244.407C260.232 244.409 260.23 244.41 260.227 244.41H258.22C258.217 244.41 258.215 244.409 258.213 244.407C258.211 244.406 258.21 244.403 258.21 244.401V240.739C258.21 240.688 258.2 240.636 258.18 240.588C258.161 240.54 258.132 240.496 258.095 240.46C258.058 240.423 258.015 240.394 257.967 240.374C257.919 240.354 257.867 240.344 257.816 240.344H256.565C256.513 240.344 256.462 240.354 256.414 240.374C256.366 240.394 256.322 240.423 256.286 240.46C256.249 240.496 256.22 240.54 256.2 240.588C256.18 240.636 256.17 240.688 256.171 240.739V244.401C256.171 244.402 256.17 244.403 256.17 244.405C256.169 244.406 256.168 244.407 256.167 244.408C256.166 244.409 256.165 244.409 256.164 244.41C256.163 244.41 256.161 244.41 256.16 244.41H252.014C251.962 244.41 251.911 244.42 251.863 244.44C251.815 244.46 251.771 244.489 251.734 244.526C251.698 244.563 251.669 244.606 251.649 244.654C251.629 244.702 251.619 244.754 251.619 244.806V246.08C251.617 246.175 251.65 246.268 251.714 246.34C251.777 246.412 251.866 246.456 251.961 246.465C253.388 246.592 254.156 247.55 254.156 248.733V256.595C254.156 257.652 253.614 258.492 252.415 258.606C252.334 258.613 252.256 258.645 252.194 258.699C252.133 258.753 252.09 258.825 252.073 258.906L251.831 260.204C251.82 260.259 251.822 260.315 251.836 260.368C251.85 260.422 251.875 260.471 251.911 260.514C251.946 260.556 251.991 260.59 252.041 260.613C252.092 260.636 252.146 260.648 252.202 260.647H256.175C256.178 260.647 256.18 260.648 256.182 260.65C256.184 260.651 256.185 260.654 256.185 260.656V264.303C256.184 264.355 256.195 264.407 256.214 264.455C256.234 264.503 256.263 264.546 256.3 264.583C256.336 264.62 256.38 264.649 256.428 264.669C256.476 264.689 256.527 264.699 256.579 264.699H257.83C257.882 264.699 257.933 264.689 257.981 264.669C258.029 264.649 258.072 264.62 258.109 264.583C258.146 264.546 258.175 264.503 258.195 264.455C258.214 264.407 258.224 264.355 258.224 264.303V260.642C258.224 260.641 258.224 260.64 258.225 260.639C258.225 260.638 258.226 260.636 258.227 260.636C258.228 260.635 258.229 260.634 258.23 260.634C258.231 260.633 258.232 260.633 258.234 260.633H260.241C260.244 260.633 260.246 260.634 260.248 260.636C260.25 260.637 260.251 260.64 260.251 260.642V264.303C260.251 264.355 260.261 264.407 260.281 264.455C260.3 264.503 260.329 264.546 260.366 264.583C260.403 264.62 260.446 264.649 260.494 264.669C260.542 264.689 260.594 264.699 260.645 264.699H261.896C261.948 264.699 261.999 264.689 262.047 264.669C262.095 264.649 262.139 264.62 262.175 264.583C262.212 264.546 262.241 264.503 262.261 264.455C262.281 264.407 262.291 264.355 262.29 264.303V260.642C262.29 260.64 262.291 260.637 262.293 260.636C262.295 260.634 262.297 260.633 262.3 260.633H264.002C266.414 260.633 268.383 258.535 268.383 255.936C268.384 255.183 268.208 254.44 267.871 253.766C267.534 253.093 267.045 252.507 266.442 252.055V252.058ZM258.235 247.435H261.251C262.371 247.435 263.357 248.278 263.428 249.396C263.446 249.682 263.405 249.968 263.308 250.238C263.211 250.507 263.06 250.754 262.864 250.963C262.668 251.172 262.431 251.339 262.168 251.453C261.906 251.567 261.622 251.626 261.336 251.627H258.235C258.233 251.627 258.232 251.626 258.231 251.626C258.23 251.625 258.229 251.625 258.228 251.624C258.227 251.623 258.226 251.621 258.226 251.62C258.225 251.619 258.225 251.617 258.225 251.616V247.444C258.225 247.442 258.226 247.439 258.228 247.438C258.23 247.436 258.232 247.435 258.235 247.435ZM262.334 257.722H258.224C258.222 257.722 258.219 257.721 258.217 257.719C258.215 257.718 258.214 257.715 258.214 257.713V253.551C258.214 253.55 258.214 253.549 258.214 253.547C258.215 253.546 258.216 253.545 258.217 253.544C258.218 253.543 258.219 253.543 258.22 253.542C258.222 253.542 258.223 253.542 258.224 253.542H262.258C263.298 253.542 264.231 254.267 264.398 255.294C264.448 255.593 264.431 255.9 264.35 256.193C264.269 256.486 264.125 256.757 263.928 256.988C263.731 257.219 263.485 257.405 263.209 257.532C262.933 257.658 262.633 257.723 262.329 257.722H262.334Z" fill="#F5F5F5"/><path d="M259.979 234C259.815 234 259.652 234 259.487 234.007H260.471C260.308 234.002 260.144 234 259.979 234Z" fill="#F5F5F5"/><path d="M241.205 252.776C241.204 255.803 241.939 258.786 243.347 261.465L235.441 271.982C235.284 272.188 235.18 272.43 235.138 272.685C235.095 272.941 235.116 273.203 235.198 273.449C235.276 273.696 235.415 273.92 235.6 274.101C235.786 274.282 236.013 274.414 236.262 274.486L243.131 276.561L246.578 283.039C246.704 283.273 246.886 283.473 247.106 283.621C247.327 283.769 247.581 283.86 247.845 283.888H248.006C248.244 283.89 248.478 283.839 248.693 283.737C248.908 283.635 249.096 283.486 249.245 283.301L258.862 271.485C259.239 271.512 259.603 271.538 259.967 271.538C260.356 271.538 260.747 271.512 261.141 271.485L270.769 283.296C270.92 283.479 271.109 283.627 271.323 283.728C271.537 283.829 271.771 283.883 272.008 283.883H272.17C272.434 283.856 272.688 283.764 272.908 283.616C273.129 283.468 273.31 283.268 273.436 283.034L276.883 276.556L283.752 274.481C284 274.408 284.227 274.275 284.412 274.094C284.597 273.913 284.736 273.691 284.816 273.445C284.89 273.197 284.905 272.935 284.86 272.681C284.816 272.426 284.713 272.185 284.56 271.977L276.629 261.409C278.023 258.745 278.753 255.783 278.756 252.776C278.756 242.597 270.604 234.27 260.473 234.008H259.489C249.371 234.27 241.205 242.583 241.205 252.776ZM260.001 237.785C262.915 237.785 265.764 238.649 268.188 240.269C270.611 241.888 272.5 244.189 273.615 246.882C274.731 249.575 275.022 252.538 274.454 255.396C273.885 258.255 272.482 260.881 270.421 262.942C268.36 265.003 265.734 266.406 262.876 266.975C260.017 267.543 257.054 267.251 254.361 266.136C251.669 265.021 249.367 263.132 247.748 260.709C246.129 258.285 245.264 255.436 245.264 252.522C245.264 248.613 246.817 244.865 249.581 242.101C252.344 239.338 256.092 237.785 260.001 237.785Z" fill="#F5F5F5"/></g><path d="M220 218C221.105 218 222 217.105 222 216C222 214.895 221.105 214 220 214C218.895 214 218 214.895 218 216C218 217.105 218.895 218 220 218Z" fill="#F5F5F5"/><path d="M220 284C221.105 284 222 283.105 222 282C222 280.895 221.105 280 220 280C218.895 280 218 280.895 218 282C218 283.105 218.895 284 220 284Z" fill="#F5F5F5"/><path d="M250 306C251.105 306 252 305.105 252 304C252 302.895 251.105 302 250 302C248.895 302 248 302.895 248 304C248 305.105 248.895 306 250 306Z" fill="#F5F5F5"/><path d="M298 306C299.105 306 300 305.105 300 304C300 302.895 299.105 302 298 302C296.895 302 296 302.895 296 304C296 305.105 296.895 306 298 306Z" fill="#F5F5F5"/><path d="M304 242C305.105 242 306 241.105 306 240C306 238.895 305.105 238 304 238C302.895 238 302 238.895 302 240C302 241.105 302.895 242 304 242Z" fill="#F5F5F5"/></g><defs><filter id="filter0_d_161_7443" x="0" y="0" width="520" height="520" filterUnits="userSpaceOnUse" color-interpolation-filters="sRGB"><feFlood flood-opacity="0" result="BackgroundImageFix"/><feColorMatrix in="SourceAlpha" type="matrix" values="0 0 0 0 0 0 0 0 0 0 0 0 0 0 0 0 0 0 127 0" result="hardAlpha"/><feOffset/><feGaussianBlur stdDeviation="100"/><feComposite in2="hardAlpha" operator="out"/><feColorMatrix type="matrix" values="0 0 0 0 0.589875 0 0 0 0 0.916667 0 0 0 0 0.389583 0 0 0 0.2 0"/><feBlend mode="normal" in2="BackgroundImageFix" result="effect1_dropShadow_161_7443"/><feBlend mode="normal" in="SourceGraphic" in2="effect1_dropShadow_161_7443" result="shape"/></filter><filter id="filter1_d_161_7443" x="214.116" y="216" width="91.7695" height="91.8887" filterUnits="userSpaceOnUse" color-interpolation-filters="sRGB"><feFlood flood-opacity="0" result="BackgroundImageFix"/><feColorMatrix in="SourceAlpha" type="matrix" values="0 0 0 0 0 0 0 0 0 0 0 0 0 0 0 0 0 0 127 0" result="hardAlpha"/><feOffset dy="3"/><feGaussianBlur stdDeviation="10.5"/><feComposite in2="hardAlpha" operator="out"/><feColorMatrix type="matrix" values="0 0 0 0 0.16711 0 0 0 0 0.439764 0 0 0 0 0 0 0 0 1 0"/><feBlend mode="normal" in2="BackgroundImageFix" result="effect1_dropShadow_161_7443"/><feBlend mode="normal" in="SourceGraphic" in2="effect1_dropShadow_161_7443" result="shape"/></filter><linearGradient id="paint0_linear_161_7443" x1="260" y1="200" x2="260" y2="320" gradientUnits="userSpaceOnUse"><stop stop-color="#C2FF9C"/><stop offset="1" stop-color="#357F08"/></linearGradient><linearGradient id="paint1_linear_161_7443" x1="320" y1="297.5" x2="200" y2="297.5" gradientUnits="userSpaceOnUse"><stop stop-color="#96EA63"/><stop offset="1" stop-color="#CCFCAF"/></linearGradient><linearGradient id="paint2_linear_161_7443" x1="320" y1="222.5" x2="200" y2="222.5" gradientUnits="userSpaceOnUse"><stop stop-color="#96EA63"/><stop offset="1" stop-color="#CCFCAF"/></linearGradient><linearGradient id="paint3_linear_161_7443" x1="222.5" y1="320" x2="222.5" y2="200" gradientUnits="userSpaceOnUse"><stop stop-color="#96EA63"/><stop offset="1" stop-color="#CCFCAF"/></linearGradient><linearGradient id="paint4_linear_161_7443" x1="297.5" y1="320" x2="297.5" y2="200" gradientUnits="userSpaceOnUse"><stop stop-color="#96EA63"/><stop offset="1" stop-color="#CCFCAF"/></linearGradient><clipPath id="clip0_161_7443"><rect width="120" height="120" fill="white" transform="translate(200 200)"/></clipPath></defs></svg>