<svg width="520" height="520" fill="none" xmlns="http://www.w3.org/2000/svg"><g clip-path="url(#clip0_161_7097)" filter="url(#filter0_d_161_7097)"><path d="M296 200H224C210.745 200 200 210.745 200 224V296C200 309.255 210.745 320 224 320H296C309.255 320 320 309.255 320 296V224C320 210.745 309.255 200 296 200Z" fill="url(#paint0_linear_161_7097)"/><path fill-rule="evenodd" clip-rule="evenodd" d="M296 200H224C210.746 200 200 210.746 200 224V296C200 309.254 210.746 320 224 320H296C309.254 320 320 309.254 320 296V224C320 210.746 309.254 200 296 200ZM203 224C203 212.402 212.402 203 224 203H296C307.598 203 317 212.402 317 224V296C317 307.598 307.598 317 296 317H224C212.402 317 203 307.598 203 296V224Z" fill="#C5BEEE"/><path opacity="0.4" d="M320 296H200V299H320V296Z" fill="url(#paint1_linear_161_7097)"/><path opacity="0.4" d="M320 221H200V224H320V221Z" fill="url(#paint2_linear_161_7097)"/><path opacity="0.4" d="M224 320V200H221V320H224Z" fill="url(#paint3_linear_161_7097)"/><path opacity="0.4" d="M299 320V200H296V320H299Z" fill="url(#paint4_linear_161_7097)"/><path fill-rule="evenodd" clip-rule="evenodd" d="M296 200H224C210.746 200 200 210.746 200 224V296C200 309.254 210.746 320 224 320H296C309.254 320 320 309.254 320 296V224C320 210.746 309.254 200 296 200ZM203 224C203 212.402 212.402 203 224 203H296C307.598 203 317 212.402 317 224V296C317 307.598 307.598 317 296 317H224C212.402 317 203 307.598 203 296V224Z" fill="#E3FED3"/><g filter="url(#filter1_d_161_7097)"><path d="M270.578 233.494H248.427C245.067 233.494 242.329 236.232 242.329 239.592V279.787C242.329 283.147 245.067 285.885 248.427 285.885H270.578C273.938 285.885 276.676 283.147 276.676 279.787V239.592C276.676 236.232 273.938 233.494 270.578 233.494ZM257.511 235.485H261.494C261.991 235.485 262.489 235.983 262.489 236.481C262.489 236.979 261.991 237.476 261.494 237.476H257.511C257.014 237.476 256.516 236.979 256.516 236.481C256.516 235.983 257.014 235.485 257.511 235.485ZM259.502 283.396C258.134 283.396 256.889 282.276 256.889 280.783C256.889 279.414 258.009 278.17 259.502 278.17C260.871 278.17 262.116 279.29 262.116 280.783C262.116 282.276 260.996 283.396 259.502 283.396ZM272.569 275.059H246.436V273.939H272.569V275.059Z" fill="#F5F5F5"/></g><path d="M220 218C221.105 218 222 217.105 222 216C222 214.895 221.105 214 220 214C218.895 214 218 214.895 218 216C218 217.105 218.895 218 220 218Z" fill="#F5F5F5"/><path d="M220 284C221.105 284 222 283.105 222 282C222 280.895 221.105 280 220 280C218.895 280 218 280.895 218 282C218 283.105 218.895 284 220 284Z" fill="#F5F5F5"/><path d="M250 306C251.105 306 252 305.105 252 304C252 302.895 251.105 302 250 302C248.895 302 248 302.895 248 304C248 305.105 248.895 306 250 306Z" fill="#F5F5F5"/><path d="M298 306C299.105 306 300 305.105 300 304C300 302.895 299.105 302 298 302C296.895 302 296 302.895 296 304C296 305.105 296.895 306 298 306Z" fill="#F5F5F5"/><path d="M304 242C305.105 242 306 241.105 306 240C306 238.895 305.105 238 304 238C302.895 238 302 238.895 302 240C302 241.105 302.895 242 304 242Z" fill="#F5F5F5"/></g><defs><filter id="filter0_d_161_7097" x="0" y="0" width="520" height="520" filterUnits="userSpaceOnUse" color-interpolation-filters="sRGB"><feFlood flood-opacity="0" result="BackgroundImageFix"/><feColorMatrix in="SourceAlpha" type="matrix" values="0 0 0 0 0 0 0 0 0 0 0 0 0 0 0 0 0 0 127 0" result="hardAlpha"/><feOffset/><feGaussianBlur stdDeviation="100"/><feComposite in2="hardAlpha" operator="out"/><feColorMatrix type="matrix" values="0 0 0 0 0.589875 0 0 0 0 0.916667 0 0 0 0 0.389583 0 0 0 0.2 0"/><feBlend mode="normal" in2="BackgroundImageFix" result="effect1_dropShadow_161_7097"/><feBlend mode="normal" in="SourceGraphic" in2="effect1_dropShadow_161_7097" result="shape"/></filter><filter id="filter1_d_161_7097" x="221.329" y="215.494" width="76.3467" height="94.3906" filterUnits="userSpaceOnUse" color-interpolation-filters="sRGB"><feFlood flood-opacity="0" result="BackgroundImageFix"/><feColorMatrix in="SourceAlpha" type="matrix" values="0 0 0 0 0 0 0 0 0 0 0 0 0 0 0 0 0 0 127 0" result="hardAlpha"/><feOffset dy="3"/><feGaussianBlur stdDeviation="10.5"/><feComposite in2="hardAlpha" operator="out"/><feColorMatrix type="matrix" values="0 0 0 0 0.191212 0 0 0 0 0.438882 0 0 0 0 0.0394139 0 0 0 1 0"/><feBlend mode="normal" in2="BackgroundImageFix" result="effect1_dropShadow_161_7097"/><feBlend mode="normal" in="SourceGraphic" in2="effect1_dropShadow_161_7097" result="shape"/></filter><linearGradient id="paint0_linear_161_7097" x1="260" y1="200" x2="260" y2="320" gradientUnits="userSpaceOnUse"><stop stop-color="#C2FF9C"/><stop offset="1" stop-color="#357F08"/></linearGradient><linearGradient id="paint1_linear_161_7097" x1="320" y1="297.5" x2="200" y2="297.5" gradientUnits="userSpaceOnUse"><stop stop-color="#96EA63"/><stop offset="1" stop-color="#CCFCAF"/></linearGradient><linearGradient id="paint2_linear_161_7097" x1="320" y1="222.5" x2="200" y2="222.5" gradientUnits="userSpaceOnUse"><stop stop-color="#96EA63"/><stop offset="1" stop-color="#CCFCAF"/></linearGradient><linearGradient id="paint3_linear_161_7097" x1="222.5" y1="320" x2="222.5" y2="200" gradientUnits="userSpaceOnUse"><stop stop-color="#96EA63"/><stop offset="1" stop-color="#CCFCAF"/></linearGradient><linearGradient id="paint4_linear_161_7097" x1="297.5" y1="320" x2="297.5" y2="200" gradientUnits="userSpaceOnUse"><stop stop-color="#96EA63"/><stop offset="1" stop-color="#CCFCAF"/></linearGradient><clipPath id="clip0_161_7097"><rect width="120" height="120" fill="white" transform="translate(200 200)"/></clipPath></defs></svg>