<svg width="419" height="132" fill="none" xmlns="http://www.w3.org/2000/svg"><path d="M416.4 131.17C417.725 131.17 418.8 130.041 418.8 128.648C418.8 127.254 417.725 126.125 416.4 126.125C415.075 126.125 414 127.254 414 128.648C414 130.041 415.075 131.17 416.4 131.17Z" fill="#63F256"/><path d="M388.8 131.17C390.126 131.17 391.2 130.041 391.2 128.648C391.2 127.254 390.126 126.125 388.8 126.125C387.475 126.125 386.4 127.254 386.4 128.648C386.4 130.041 387.475 131.17 388.8 131.17Z" fill="#63F256"/><path d="M361.2 131.17C362.525 131.17 363.6 130.041 363.6 128.648C363.6 127.254 362.525 126.125 361.2 126.125C359.874 126.125 358.8 127.254 358.8 128.648C358.8 130.041 359.874 131.17 361.2 131.17Z" fill="#63F256"/><path d="M333.6 131.17C334.926 131.17 336 130.041 336 128.648C336 127.254 334.926 126.125 333.6 126.125C332.275 126.125 331.2 127.254 331.2 128.648C331.2 130.041 332.275 131.17 333.6 131.17Z" fill="#63F256"/><path d="M306 131.17C307.325 131.17 308.4 130.041 308.4 128.648C308.4 127.254 307.325 126.125 306 126.125C304.674 126.125 303.6 127.254 303.6 128.648C303.6 130.041 304.674 131.17 306 131.17Z" fill="#63F256"/><path d="M278.4 131.17C279.725 131.17 280.8 130.041 280.8 128.648C280.8 127.254 279.725 126.125 278.4 126.125C277.075 126.125 276 127.254 276 128.648C276 130.041 277.075 131.17 278.4 131.17Z" fill="#63F256"/><path d="M250.8 131.17C252.126 131.17 253.2 130.041 253.2 128.648C253.2 127.254 252.126 126.125 250.8 126.125C249.475 126.125 248.4 127.254 248.4 128.648C248.4 130.041 249.475 131.17 250.8 131.17Z" fill="#63F256"/><path d="M223.2 131.17C224.525 131.17 225.6 130.041 225.6 128.648C225.6 127.254 224.525 126.125 223.2 126.125C221.874 126.125 220.8 127.254 220.8 128.648C220.8 130.041 221.874 131.17 223.2 131.17Z" fill="#63F256"/><path d="M195.6 131.17C196.926 131.17 198 130.041 198 128.648C198 127.254 196.926 126.125 195.6 126.125C194.275 126.125 193.2 127.254 193.2 128.648C193.2 130.041 194.275 131.17 195.6 131.17Z" fill="#63F256"/><path d="M168 131.17C169.325 131.17 170.4 130.041 170.4 128.648C170.4 127.254 169.325 126.125 168 126.125C166.674 126.125 165.6 127.254 165.6 128.648C165.6 130.041 166.674 131.17 168 131.17Z" fill="#63F256"/><path d="M140.4 131.17C141.725 131.17 142.8 130.041 142.8 128.648C142.8 127.254 141.725 126.125 140.4 126.125C139.075 126.125 138 127.254 138 128.648C138 130.041 139.075 131.17 140.4 131.17Z" fill="#63F256"/><path d="M112.8 131.17C114.126 131.17 115.2 130.041 115.2 128.648C115.2 127.254 114.126 126.125 112.8 126.125C111.475 126.125 110.4 127.254 110.4 128.648C110.4 130.041 111.475 131.17 112.8 131.17Z" fill="#63F256"/><path d="M85.1998 131.17C86.5253 131.17 87.5998 130.041 87.5998 128.648C87.5998 127.254 86.5253 126.125 85.1998 126.125C83.8743 126.125 82.7998 127.254 82.7998 128.648C82.7998 130.041 83.8743 131.17 85.1998 131.17Z" fill="#63F256"/><path d="M57.6002 131.17C58.9257 131.17 60.0002 130.041 60.0002 128.648C60.0002 127.254 58.9257 126.125 57.6002 126.125C56.2747 126.125 55.2002 127.254 55.2002 128.648C55.2002 130.041 56.2747 131.17 57.6002 131.17Z" fill="#63F256"/><path d="M29.9996 131.17C31.3251 131.17 32.3996 130.041 32.3996 128.648C32.3996 127.254 31.3251 126.125 29.9996 126.125C28.6741 126.125 27.5996 127.254 27.5996 128.648C27.5996 130.041 28.6741 131.17 29.9996 131.17Z" fill="#63F256"/><path d="M2.40007 131.17C3.72556 131.17 4.80007 130.041 4.80007 128.648C4.80007 127.254 3.72556 126.125 2.40007 126.125C1.07459 126.125 0 127.254 0 128.648C0 130.041 1.07459 131.17 2.40007 131.17Z" fill="#63F256"/><path d="M416.4 99.6388C417.725 99.6388 418.8 98.5094 418.8 97.1163C418.8 95.7231 417.725 94.5938 416.4 94.5938C415.075 94.5938 414 95.7231 414 97.1163C414 98.5094 415.075 99.6388 416.4 99.6388Z" fill="#63F256"/><path d="M388.8 99.6388C390.126 99.6388 391.2 98.5094 391.2 97.1163C391.2 95.7231 390.126 94.5938 388.8 94.5938C387.475 94.5938 386.4 95.7231 386.4 97.1163C386.4 98.5094 387.475 99.6388 388.8 99.6388Z" fill="#63F256"/><path d="M361.2 99.6388C362.525 99.6388 363.6 98.5094 363.6 97.1163C363.6 95.7231 362.525 94.5938 361.2 94.5938C359.874 94.5938 358.8 95.7231 358.8 97.1163C358.8 98.5094 359.874 99.6388 361.2 99.6388Z" fill="#63F256"/><path d="M333.6 99.6388C334.926 99.6388 336 98.5094 336 97.1163C336 95.7231 334.926 94.5938 333.6 94.5938C332.275 94.5938 331.2 95.7231 331.2 97.1163C331.2 98.5094 332.275 99.6388 333.6 99.6388Z" fill="#63F256"/><path d="M306 99.6388C307.325 99.6388 308.4 98.5094 308.4 97.1163C308.4 95.7231 307.325 94.5938 306 94.5938C304.674 94.5938 303.6 95.7231 303.6 97.1163C303.6 98.5094 304.674 99.6388 306 99.6388Z" fill="#63F256"/><path d="M278.4 99.6388C279.725 99.6388 280.8 98.5094 280.8 97.1163C280.8 95.7231 279.725 94.5938 278.4 94.5938C277.075 94.5938 276 95.7231 276 97.1163C276 98.5094 277.075 99.6388 278.4 99.6388Z" fill="#63F256"/><path d="M250.8 99.6388C252.126 99.6388 253.2 98.5094 253.2 97.1163C253.2 95.7231 252.126 94.5938 250.8 94.5938C249.475 94.5938 248.4 95.7231 248.4 97.1163C248.4 98.5094 249.475 99.6388 250.8 99.6388Z" fill="#63F256"/><path d="M223.2 99.6388C224.525 99.6388 225.6 98.5094 225.6 97.1163C225.6 95.7231 224.525 94.5938 223.2 94.5938C221.874 94.5938 220.8 95.7231 220.8 97.1163C220.8 98.5094 221.874 99.6388 223.2 99.6388Z" fill="#63F256"/><path d="M195.6 99.6388C196.926 99.6388 198 98.5094 198 97.1163C198 95.7231 196.926 94.5938 195.6 94.5938C194.275 94.5938 193.2 95.7231 193.2 97.1163C193.2 98.5094 194.275 99.6388 195.6 99.6388Z" fill="#63F256"/><path d="M168 99.6388C169.325 99.6388 170.4 98.5094 170.4 97.1163C170.4 95.7231 169.325 94.5938 168 94.5938C166.674 94.5938 165.6 95.7231 165.6 97.1163C165.6 98.5094 166.674 99.6388 168 99.6388Z" fill="#63F256"/><path d="M140.4 99.6388C141.725 99.6388 142.8 98.5094 142.8 97.1163C142.8 95.7231 141.725 94.5938 140.4 94.5938C139.075 94.5938 138 95.7231 138 97.1163C138 98.5094 139.075 99.6388 140.4 99.6388Z" fill="#63F256"/><path d="M112.8 99.6388C114.126 99.6388 115.2 98.5094 115.2 97.1163C115.2 95.7231 114.126 94.5938 112.8 94.5938C111.475 94.5938 110.4 95.7231 110.4 97.1163C110.4 98.5094 111.475 99.6388 112.8 99.6388Z" fill="#63F256"/><path d="M85.1998 99.6388C86.5253 99.6388 87.5998 98.5094 87.5998 97.1163C87.5998 95.7231 86.5253 94.5938 85.1998 94.5938C83.8743 94.5938 82.7998 95.7231 82.7998 97.1163C82.7998 98.5094 83.8743 99.6388 85.1998 99.6388Z" fill="#63F256"/><path d="M57.6002 99.6388C58.9257 99.6388 60.0002 98.5094 60.0002 97.1163C60.0002 95.7231 58.9257 94.5938 57.6002 94.5938C56.2747 94.5938 55.2002 95.7231 55.2002 97.1163C55.2002 98.5094 56.2747 99.6388 57.6002 99.6388Z" fill="#63F256"/><path d="M29.9996 99.6388C31.3251 99.6388 32.3996 98.5094 32.3996 97.1163C32.3996 95.7231 31.3251 94.5938 29.9996 94.5938C28.6741 94.5938 27.5996 95.7231 27.5996 97.1163C27.5996 98.5094 28.6741 99.6388 29.9996 99.6388Z" fill="#63F256"/><path d="M2.40007 99.6388C3.72556 99.6388 4.80007 98.5094 4.80007 97.1163C4.80007 95.7231 3.72556 94.5938 2.40007 94.5938C1.07459 94.5938 0 95.7231 0 97.1163C0 98.5094 1.07459 99.6388 2.40007 99.6388Z" fill="#63F256"/><path d="M416.4 68.1075C417.725 68.1075 418.8 66.9781 418.8 65.585C418.8 64.1919 417.725 63.0625 416.4 63.0625C415.075 63.0625 414 64.1919 414 65.585C414 66.9781 415.075 68.1075 416.4 68.1075Z" fill="#63F256"/><path d="M388.8 68.1075C390.126 68.1075 391.2 66.9781 391.2 65.585C391.2 64.1919 390.126 63.0625 388.8 63.0625C387.475 63.0625 386.4 64.1919 386.4 65.585C386.4 66.9781 387.475 68.1075 388.8 68.1075Z" fill="#63F256"/><path d="M361.2 68.1075C362.525 68.1075 363.6 66.9781 363.6 65.585C363.6 64.1919 362.525 63.0625 361.2 63.0625C359.874 63.0625 358.8 64.1919 358.8 65.585C358.8 66.9781 359.874 68.1075 361.2 68.1075Z" fill="#63F256"/><path d="M333.6 68.1075C334.926 68.1075 336 66.9781 336 65.585C336 64.1919 334.926 63.0625 333.6 63.0625C332.275 63.0625 331.2 64.1919 331.2 65.585C331.2 66.9781 332.275 68.1075 333.6 68.1075Z" fill="#63F256"/><path d="M306 68.1075C307.325 68.1075 308.4 66.9781 308.4 65.585C308.4 64.1919 307.325 63.0625 306 63.0625C304.674 63.0625 303.6 64.1919 303.6 65.585C303.6 66.9781 304.674 68.1075 306 68.1075Z" fill="#63F256"/><path d="M278.4 68.1075C279.725 68.1075 280.8 66.9781 280.8 65.585C280.8 64.1919 279.725 63.0625 278.4 63.0625C277.075 63.0625 276 64.1919 276 65.585C276 66.9781 277.075 68.1075 278.4 68.1075Z" fill="#63F256"/><path d="M250.8 68.1075C252.126 68.1075 253.2 66.9781 253.2 65.585C253.2 64.1919 252.126 63.0625 250.8 63.0625C249.475 63.0625 248.4 64.1919 248.4 65.585C248.4 66.9781 249.475 68.1075 250.8 68.1075Z" fill="#63F256"/><path d="M223.2 68.1075C224.525 68.1075 225.6 66.9781 225.6 65.585C225.6 64.1919 224.525 63.0625 223.2 63.0625C221.874 63.0625 220.8 64.1919 220.8 65.585C220.8 66.9781 221.874 68.1075 223.2 68.1075Z" fill="#63F256"/><path d="M195.6 68.1075C196.926 68.1075 198 66.9781 198 65.585C198 64.1919 196.926 63.0625 195.6 63.0625C194.275 63.0625 193.2 64.1919 193.2 65.585C193.2 66.9781 194.275 68.1075 195.6 68.1075Z" fill="#63F256"/><path d="M168 68.1075C169.325 68.1075 170.4 66.9781 170.4 65.585C170.4 64.1919 169.325 63.0625 168 63.0625C166.674 63.0625 165.6 64.1919 165.6 65.585C165.6 66.9781 166.674 68.1075 168 68.1075Z" fill="#63F256"/><path d="M140.4 68.1075C141.725 68.1075 142.8 66.9781 142.8 65.585C142.8 64.1919 141.725 63.0625 140.4 63.0625C139.075 63.0625 138 64.1919 138 65.585C138 66.9781 139.075 68.1075 140.4 68.1075Z" fill="#63F256"/><path d="M112.8 68.1075C114.126 68.1075 115.2 66.9781 115.2 65.585C115.2 64.1919 114.126 63.0625 112.8 63.0625C111.475 63.0625 110.4 64.1919 110.4 65.585C110.4 66.9781 111.475 68.1075 112.8 68.1075Z" fill="#63F256"/><path d="M85.1998 68.1075C86.5253 68.1075 87.5998 66.9781 87.5998 65.585C87.5998 64.1919 86.5253 63.0625 85.1998 63.0625C83.8743 63.0625 82.7998 64.1919 82.7998 65.585C82.7998 66.9781 83.8743 68.1075 85.1998 68.1075Z" fill="#63F256"/><path d="M57.6002 68.1075C58.9257 68.1075 60.0002 66.9781 60.0002 65.585C60.0002 64.1919 58.9257 63.0625 57.6002 63.0625C56.2747 63.0625 55.2002 64.1919 55.2002 65.585C55.2002 66.9781 56.2747 68.1075 57.6002 68.1075Z" fill="#63F256"/><path d="M29.9996 68.1075C31.3251 68.1075 32.3996 66.9781 32.3996 65.585C32.3996 64.1919 31.3251 63.0625 29.9996 63.0625C28.6741 63.0625 27.5996 64.1919 27.5996 65.585C27.5996 66.9781 28.6741 68.1075 29.9996 68.1075Z" fill="#63F256"/><path d="M2.40007 68.1075C3.72556 68.1075 4.80007 66.9781 4.80007 65.585C4.80007 64.1919 3.72556 63.0625 2.40007 63.0625C1.07459 63.0625 0 64.1919 0 65.585C0 66.9781 1.07459 68.1075 2.40007 68.1075Z" fill="#63F256"/><path d="M416.4 36.5763C417.725 36.5763 418.8 35.4469 418.8 34.0538C418.8 32.6606 417.725 31.5312 416.4 31.5312C415.075 31.5312 414 32.6606 414 34.0538C414 35.4469 415.075 36.5763 416.4 36.5763Z" fill="#63F256"/><path d="M388.8 36.5763C390.126 36.5763 391.2 35.4469 391.2 34.0538C391.2 32.6606 390.126 31.5312 388.8 31.5312C387.475 31.5312 386.4 32.6606 386.4 34.0538C386.4 35.4469 387.475 36.5763 388.8 36.5763Z" fill="#63F256"/><path d="M361.2 36.5763C362.525 36.5763 363.6 35.4469 363.6 34.0538C363.6 32.6606 362.525 31.5312 361.2 31.5312C359.874 31.5312 358.8 32.6606 358.8 34.0538C358.8 35.4469 359.874 36.5763 361.2 36.5763Z" fill="#63F256"/><path d="M333.6 36.5763C334.926 36.5763 336 35.4469 336 34.0538C336 32.6606 334.926 31.5312 333.6 31.5312C332.275 31.5312 331.2 32.6606 331.2 34.0538C331.2 35.4469 332.275 36.5763 333.6 36.5763Z" fill="#63F256"/><path d="M306 36.5763C307.325 36.5763 308.4 35.4469 308.4 34.0538C308.4 32.6606 307.325 31.5312 306 31.5312C304.674 31.5312 303.6 32.6606 303.6 34.0538C303.6 35.4469 304.674 36.5763 306 36.5763Z" fill="#63F256"/><path d="M278.4 36.5763C279.725 36.5763 280.8 35.4469 280.8 34.0538C280.8 32.6606 279.725 31.5312 278.4 31.5312C277.075 31.5312 276 32.6606 276 34.0538C276 35.4469 277.075 36.5763 278.4 36.5763Z" fill="#63F256"/><path d="M250.8 36.5763C252.126 36.5763 253.2 35.4469 253.2 34.0538C253.2 32.6606 252.126 31.5312 250.8 31.5312C249.475 31.5312 248.4 32.6606 248.4 34.0538C248.4 35.4469 249.475 36.5763 250.8 36.5763Z" fill="#63F256"/><path d="M223.2 36.5763C224.525 36.5763 225.6 35.4469 225.6 34.0538C225.6 32.6606 224.525 31.5312 223.2 31.5312C221.874 31.5312 220.8 32.6606 220.8 34.0538C220.8 35.4469 221.874 36.5763 223.2 36.5763Z" fill="#63F256"/><path d="M195.6 36.5763C196.926 36.5763 198 35.4469 198 34.0538C198 32.6606 196.926 31.5312 195.6 31.5312C194.275 31.5312 193.2 32.6606 193.2 34.0538C193.2 35.4469 194.275 36.5763 195.6 36.5763Z" fill="#63F256"/><path d="M168 36.5763C169.325 36.5763 170.4 35.4469 170.4 34.0538C170.4 32.6606 169.325 31.5312 168 31.5312C166.674 31.5312 165.6 32.6606 165.6 34.0538C165.6 35.4469 166.674 36.5763 168 36.5763Z" fill="#63F256"/><path d="M140.4 36.5763C141.725 36.5763 142.8 35.4469 142.8 34.0538C142.8 32.6606 141.725 31.5312 140.4 31.5312C139.075 31.5312 138 32.6606 138 34.0538C138 35.4469 139.075 36.5763 140.4 36.5763Z" fill="#63F256"/><path d="M112.8 36.5763C114.126 36.5763 115.2 35.4469 115.2 34.0538C115.2 32.6606 114.126 31.5312 112.8 31.5312C111.475 31.5312 110.4 32.6606 110.4 34.0538C110.4 35.4469 111.475 36.5763 112.8 36.5763Z" fill="#63F256"/><path d="M85.1998 36.5763C86.5253 36.5763 87.5998 35.4469 87.5998 34.0538C87.5998 32.6606 86.5253 31.5312 85.1998 31.5312C83.8743 31.5312 82.7998 32.6606 82.7998 34.0538C82.7998 35.4469 83.8743 36.5763 85.1998 36.5763Z" fill="#63F256"/><path d="M57.6002 36.5763C58.9257 36.5763 60.0002 35.4469 60.0002 34.0538C60.0002 32.6606 58.9257 31.5312 57.6002 31.5312C56.2747 31.5312 55.2002 32.6606 55.2002 34.0538C55.2002 35.4469 56.2747 36.5763 57.6002 36.5763Z" fill="#63F256"/><path d="M29.9996 36.5763C31.3251 36.5763 32.3996 35.4469 32.3996 34.0538C32.3996 32.6606 31.3251 31.5312 29.9996 31.5312C28.6741 31.5312 27.5996 32.6606 27.5996 34.0538C27.5996 35.4469 28.6741 36.5763 29.9996 36.5763Z" fill="#63F256"/><path d="M2.40007 36.5763C3.72556 36.5763 4.80007 35.4469 4.80007 34.0538C4.80007 32.6606 3.72556 31.5312 2.40007 31.5312C1.07459 31.5312 0 32.6606 0 34.0538C0 35.4469 1.07459 36.5763 2.40007 36.5763Z" fill="#63F256"/><path d="M416.4 5.045C417.725 5.045 418.8 3.91564 418.8 2.5225C418.8 1.12936 417.725 0 416.4 0C415.075 0 414 1.12936 414 2.5225C414 3.91564 415.075 5.045 416.4 5.045Z" fill="#63F256"/><path d="M388.8 5.045C390.126 5.045 391.2 3.91564 391.2 2.5225C391.2 1.12936 390.126 0 388.8 0C387.475 0 386.4 1.12936 386.4 2.5225C386.4 3.91564 387.475 5.045 388.8 5.045Z" fill="#63F256"/><path d="M361.2 5.045C362.525 5.045 363.6 3.91564 363.6 2.5225C363.6 1.12936 362.525 0 361.2 0C359.874 0 358.8 1.12936 358.8 2.5225C358.8 3.91564 359.874 5.045 361.2 5.045Z" fill="#63F256"/><path d="M333.6 5.045C334.926 5.045 336 3.91564 336 2.5225C336 1.12936 334.926 0 333.6 0C332.275 0 331.2 1.12936 331.2 2.5225C331.2 3.91564 332.275 5.045 333.6 5.045Z" fill="#63F256"/><path d="M306 5.045C307.325 5.045 308.4 3.91564 308.4 2.5225C308.4 1.12936 307.325 0 306 0C304.674 0 303.6 1.12936 303.6 2.5225C303.6 3.91564 304.674 5.045 306 5.045Z" fill="#63F256"/><path d="M278.4 5.045C279.725 5.045 280.8 3.91564 280.8 2.5225C280.8 1.12936 279.725 0 278.4 0C277.075 0 276 1.12936 276 2.5225C276 3.91564 277.075 5.045 278.4 5.045Z" fill="#63F256"/><path d="M250.8 5.045C252.126 5.045 253.2 3.91564 253.2 2.5225C253.2 1.12936 252.126 0 250.8 0C249.475 0 248.4 1.12936 248.4 2.5225C248.4 3.91564 249.475 5.045 250.8 5.045Z" fill="#63F256"/><path d="M223.2 5.045C224.525 5.045 225.6 3.91564 225.6 2.5225C225.6 1.12936 224.525 0 223.2 0C221.874 0 220.8 1.12936 220.8 2.5225C220.8 3.91564 221.874 5.045 223.2 5.045Z" fill="#63F256"/><path d="M195.6 5.045C196.926 5.045 198 3.91564 198 2.5225C198 1.12936 196.926 0 195.6 0C194.275 0 193.2 1.12936 193.2 2.5225C193.2 3.91564 194.275 5.045 195.6 5.045Z" fill="#63F256"/><path d="M168 5.045C169.325 5.045 170.4 3.91564 170.4 2.5225C170.4 1.12936 169.325 0 168 0C166.674 0 165.6 1.12936 165.6 2.5225C165.6 3.91564 166.674 5.045 168 5.045Z" fill="#63F256"/><path d="M140.4 5.045C141.725 5.045 142.8 3.91564 142.8 2.5225C142.8 1.12936 141.725 0 140.4 0C139.075 0 138 1.12936 138 2.5225C138 3.91564 139.075 5.045 140.4 5.045Z" fill="#63F256"/><path d="M112.8 5.045C114.126 5.045 115.2 3.91564 115.2 2.5225C115.2 1.12936 114.126 0 112.8 0C111.475 0 110.4 1.12936 110.4 2.5225C110.4 3.91564 111.475 5.045 112.8 5.045Z" fill="#63F256"/><path d="M85.1998 5.045C86.5253 5.045 87.5998 3.91564 87.5998 2.5225C87.5998 1.12936 86.5253 0 85.1998 0C83.8743 0 82.7998 1.12936 82.7998 2.5225C82.7998 3.91564 83.8743 5.045 85.1998 5.045Z" fill="#63F256"/><path d="M57.6002 5.045C58.9257 5.045 60.0002 3.91564 60.0002 2.5225C60.0002 1.12936 58.9257 0 57.6002 0C56.2747 0 55.2002 1.12936 55.2002 2.5225C55.2002 3.91564 56.2747 5.045 57.6002 5.045Z" fill="#63F256"/><path d="M29.9996 5.045C31.3251 5.045 32.3996 3.91564 32.3996 2.5225C32.3996 1.12936 31.3251 0 29.9996 0C28.6741 0 27.5996 1.12936 27.5996 2.5225C27.5996 3.91564 28.6741 5.045 29.9996 5.045Z" fill="#63F256"/><path d="M2.40007 5.045C3.72556 5.045 4.80007 3.91564 4.80007 2.5225C4.80007 1.12936 3.72556 0 2.40007 0C1.07459 0 0 1.12936 0 2.5225C0 3.91564 1.07459 5.045 2.40007 5.045Z" fill="#63F256"/></svg>