<svg width="148" height="56" fill="none" xmlns="http://www.w3.org/2000/svg"><g opacity="0.6"><g filter="url(#filter0_ddd_281_5058)"><rect x="10" width="36" height="36" rx="18" fill="black" fill-opacity="0.5" shape-rendering="crispEdges"/><rect x="10.5" y="0.5" width="35" height="35" rx="17.5" stroke="white" stroke-opacity="0.07" shape-rendering="crispEdges"/><rect x="10.5" y="0.5" width="35" height="35" rx="17.5" stroke="url(#paint0_linear_281_5058)" style="mix-blend-mode:overlay" shape-rendering="crispEdges"/><g clip-path="url(#clip0_281_5058)"><path d="M32.893 24.6673H23.1063C22.1263 24.6673 21.333 23.874 21.333 22.894V13.1073C21.333 12.1273 22.1263 11.334 23.1063 11.334H32.8863C33.873 11.334 34.6663 12.1273 34.6663 13.1073V22.8873C34.6663 23.874 33.873 24.6673 32.893 24.6673Z" stroke="#F8F8F8" stroke-width="1.5" stroke-miterlimit="10" stroke-linecap="round" stroke-linejoin="round"/><path d="M28 21.9992V15.5659C28 14.1992 29.0933 13.7725 30.1867 14.1059" stroke="#F8F8F8" stroke-width="1.5" stroke-miterlimit="10" stroke-linecap="round" stroke-linejoin="round"/><path d="M26.333 17.334H29.6663" stroke="#F8F8F8" stroke-width="1.5" stroke-miterlimit="10" stroke-linecap="round" stroke-linejoin="round"/></g></g><g filter="url(#filter1_ddd_281_5058)"><rect x="56" width="36" height="36" rx="18" fill="black" fill-opacity="0.5" shape-rendering="crispEdges"/><rect x="56.5" y="0.5" width="35" height="35" rx="17.5" stroke="white" stroke-opacity="0.07" shape-rendering="crispEdges"/><rect x="56.5" y="0.5" width="35" height="35" rx="17.5" stroke="url(#paint1_linear_281_5058)" style="mix-blend-mode:overlay" shape-rendering="crispEdges"/><mask id="path-8-inside-1_281_5058" fill="white"><path d="M75.2668 17.4649L79.3952 12.666H78.4169L74.8322 16.8328L71.9692 12.666H68.667L72.9965 18.967L68.667 23.9993H69.6453L73.4308 19.5991L76.4544 23.9993H79.7566L75.2666 17.4649H75.2668ZM73.9268 19.0225L73.4882 18.3951L69.9978 13.4025H71.5005L74.3173 17.4316L74.7559 18.0591L78.4174 23.2964H76.9147L73.9268 19.0227V19.0225Z"/></mask><path d="M75.2668 17.4649L79.3952 12.666H78.4169L74.8322 16.8328L71.9692 12.666H68.667L72.9965 18.967L68.667 23.9993H69.6453L73.4308 19.5991L76.4544 23.9993H79.7566L75.2666 17.4649H75.2668ZM73.9268 19.0225L73.4882 18.3951L69.9978 13.4025H71.5005L74.3173 17.4316L74.7559 18.0591L78.4174 23.2964H76.9147L73.9268 19.0227V19.0225Z" fill="#FFFDFD"/><path d="M75.2668 17.4649V18.9649H75.9551L76.404 18.4431L75.2668 17.4649ZM79.3952 12.666L80.5323 13.6443L82.6643 11.166H79.3952V12.666ZM78.4169 12.666V11.166H77.7286L77.2798 11.6878L78.4169 12.666ZM74.8322 16.8328L73.596 17.6823L74.699 19.2877L75.9694 17.8111L74.8322 16.8328ZM71.9692 12.666L73.2055 11.8166L72.7585 11.166H71.9692V12.666ZM68.667 12.666V11.166H65.8163L67.4307 13.5155L68.667 12.666ZM72.9965 18.967L74.1336 19.9452L74.887 19.0696L74.2328 18.1175L72.9965 18.967ZM68.667 23.9993L67.5299 23.0211L65.3978 25.4993H68.667V23.9993ZM69.6453 23.9993V25.4993H70.3336L70.7825 24.9776L69.6453 23.9993ZM73.4308 19.5991L74.6671 18.7496L73.564 17.1442L72.2937 18.6208L73.4308 19.5991ZM76.4544 23.9993L75.2182 24.8488L75.6651 25.4993H76.4544V23.9993ZM79.7566 23.9993V25.4993H82.6073L80.9929 23.1499L79.7566 23.9993ZM75.2666 17.4649V15.9649H72.4159L74.0303 18.3144L75.2666 17.4649ZM73.9268 19.0225H75.4268V18.5501L75.1562 18.163L73.9268 19.0225ZM73.4882 18.3951L72.2588 19.2545L72.2588 19.2545L73.4882 18.3951ZM69.9978 13.4025V11.9025H67.119L68.7685 14.262L69.9978 13.4025ZM71.5005 13.4025L72.7299 12.5431L72.2821 11.9025H71.5005V13.4025ZM74.3173 17.4316L73.0879 18.2911L73.0879 18.2911L74.3173 17.4316ZM74.7559 18.0591L75.9853 17.1996L75.9853 17.1996L74.7559 18.0591ZM78.4174 23.2964V24.7964H81.2962L79.6467 22.4369L78.4174 23.2964ZM76.9147 23.2964L75.6853 24.1558L76.1331 24.7964H76.9147V23.2964ZM73.9268 19.0227H72.4268V19.4951L72.6975 19.8822L73.9268 19.0227ZM75.2668 17.4649L76.404 18.4431L80.5323 13.6443L79.3952 12.666L78.2581 11.6878L74.1297 16.4867L75.2668 17.4649ZM79.3952 12.666V11.166H78.4169V12.666V14.166H79.3952V12.666ZM78.4169 12.666L77.2798 11.6878L73.6951 15.8546L74.8322 16.8328L75.9694 17.8111L79.554 13.6443L78.4169 12.666ZM74.8322 16.8328L76.0685 15.9834L73.2055 11.8166L71.9692 12.666L70.7329 13.5155L73.596 17.6823L74.8322 16.8328ZM71.9692 12.666V11.166H68.667V12.666V14.166H71.9692V12.666ZM68.667 12.666L67.4307 13.5155L71.7602 19.8164L72.9965 18.967L74.2328 18.1175L69.9033 11.8165L68.667 12.666ZM72.9965 18.967L71.8594 17.9887L67.5299 23.0211L68.667 23.9993L69.8041 24.9776L74.1336 19.9452L72.9965 18.967ZM68.667 23.9993V25.4993H69.6453V23.9993V22.4993H68.667V23.9993ZM69.6453 23.9993L70.7825 24.9776L74.5679 20.5773L73.4308 19.5991L72.2937 18.6208L68.5082 23.0211L69.6453 23.9993ZM73.4308 19.5991L72.1946 20.4485L75.2182 24.8488L76.4544 23.9993L77.6907 23.1499L74.6671 18.7496L73.4308 19.5991ZM76.4544 23.9993V25.4993H79.7566V23.9993V22.4993H76.4544V23.9993ZM79.7566 23.9993L80.9929 23.1499L76.5029 16.6154L75.2666 17.4649L74.0303 18.3144L78.5203 24.8488L79.7566 23.9993ZM75.2666 17.4649V18.9649H75.2668V17.4649V15.9649H75.2666V17.4649ZM73.9268 19.0225L75.1562 18.163L74.7175 17.5356L73.4882 18.3951L72.2588 19.2545L72.6975 19.882L73.9268 19.0225ZM73.4882 18.3951L74.7175 17.5356L71.2272 12.543L69.9978 13.4025L68.7685 14.262L72.2588 19.2545L73.4882 18.3951ZM69.9978 13.4025V14.9025H71.5005V13.4025V11.9025H69.9978V13.4025ZM71.5005 13.4025L70.2712 14.2619L73.0879 18.2911L74.3173 17.4316L75.5466 16.5722L72.7299 12.5431L71.5005 13.4025ZM74.3173 17.4316L73.0879 18.2911L73.5266 18.9186L74.7559 18.0591L75.9853 17.1996L75.5466 16.5722L74.3173 17.4316ZM74.7559 18.0591L73.5266 18.9185L77.188 24.1558L78.4174 23.2964L79.6467 22.4369L75.9853 17.1996L74.7559 18.0591ZM78.4174 23.2964V21.7964H76.9147V23.2964V24.7964H78.4174V23.2964ZM76.9147 23.2964L78.144 22.4369L75.1562 18.1632L73.9268 19.0227L72.6975 19.8822L75.6853 24.1558L76.9147 23.2964ZM73.9268 19.0227H75.4268V19.0225H73.9268H72.4268V19.0227H73.9268Z" fill="#FFFDFD" mask="url(#path-8-inside-1_281_5058)"/></g><g filter="url(#filter2_ddd_281_5058)"><rect x="102" width="36" height="36" rx="18" fill="black" fill-opacity="0.5" shape-rendering="crispEdges"/><rect x="102.5" y="0.5" width="35" height="35" rx="17.5" stroke="white" stroke-opacity="0.07" shape-rendering="crispEdges"/><rect x="102.5" y="0.5" width="35" height="35" rx="17.5" stroke="url(#paint2_linear_281_5058)" style="mix-blend-mode:overlay" shape-rendering="crispEdges"/><g clip-path="url(#clip1_281_5058)"><path d="M124.893 24.6673H115.106C114.126 24.6673 113.333 23.874 113.333 22.894V13.1073C113.333 12.1273 114.126 11.334 115.106 11.334H124.886C125.873 11.334 126.666 12.1273 126.666 13.1073V22.8873C126.666 23.874 125.873 24.6673 124.893 24.6673Z" stroke="#FFFDFD" stroke-width="1.5" stroke-miterlimit="10" stroke-linecap="round" stroke-linejoin="round"/><path d="M122.666 18.0007C122.666 19.474 121.473 20.6673 120 20.6673C118.526 20.6673 117.333 19.474 117.333 18.0007C117.333 16.5273 118.526 15.334 120 15.334C121.473 15.334 122.666 16.5273 122.666 18.0007Z" stroke="#FFFDFD" stroke-width="1.5" stroke-miterlimit="10" stroke-linecap="round" stroke-linejoin="round"/><path d="M124.667 13.6673C124.667 13.854 124.52 14.0007 124.333 14.0007C124.147 14.0007 124 13.854 124 13.6673C124 13.4807 124.147 13.334 124.333 13.334C124.52 13.334 124.667 13.4807 124.667 13.6673Z" stroke="#FFFDFD" stroke-width="1.5" stroke-miterlimit="10" stroke-linecap="round" stroke-linejoin="round"/></g></g></g><defs><filter id="filter0_ddd_281_5058" x="-10" y="-20" width="76" height="76" filterUnits="userSpaceOnUse" color-interpolation-filters="sRGB"><feFlood flood-opacity="0" result="BackgroundImageFix"/><feColorMatrix in="SourceAlpha" type="matrix" values="0 0 0 0 0 0 0 0 0 0 0 0 0 0 0 0 0 0 127 0" result="hardAlpha"/><feOffset dy="10"/><feGaussianBlur stdDeviation="5"/><feComposite in2="hardAlpha" operator="out"/><feColorMatrix type="matrix" values="0 0 0 0 0 0 0 0 0 0 0 0 0 0 0 0 0 0 0.1 0"/><feBlend mode="normal" in2="BackgroundImageFix" result="effect1_dropShadow_281_5058"/><feColorMatrix in="SourceAlpha" type="matrix" values="0 0 0 0 0 0 0 0 0 0 0 0 0 0 0 0 0 0 127 0" result="hardAlpha"/><feOffset dy="4"/><feGaussianBlur stdDeviation="2"/><feComposite in2="hardAlpha" operator="out"/><feColorMatrix type="matrix" values="0 0 0 0 0 0 0 0 0 0 0 0 0 0 0 0 0 0 0.05 0"/><feBlend mode="normal" in2="effect1_dropShadow_281_5058" result="effect2_dropShadow_281_5058"/><feColorMatrix in="SourceAlpha" type="matrix" values="0 0 0 0 0 0 0 0 0 0 0 0 0 0 0 0 0 0 127 0" result="hardAlpha"/><feOffset dy="1"/><feComposite in2="hardAlpha" operator="out"/><feColorMatrix type="matrix" values="0 0 0 0 0 0 0 0 0 0 0 0 0 0 0 0 0 0 0.05 0"/><feBlend mode="normal" in2="effect2_dropShadow_281_5058" result="effect3_dropShadow_281_5058"/><feBlend mode="normal" in="SourceGraphic" in2="effect3_dropShadow_281_5058" result="shape"/></filter><filter id="filter1_ddd_281_5058" x="36" y="-20" width="76" height="76" filterUnits="userSpaceOnUse" color-interpolation-filters="sRGB"><feFlood flood-opacity="0" result="BackgroundImageFix"/><feColorMatrix in="SourceAlpha" type="matrix" values="0 0 0 0 0 0 0 0 0 0 0 0 0 0 0 0 0 0 127 0" result="hardAlpha"/><feOffset dy="10"/><feGaussianBlur stdDeviation="5"/><feComposite in2="hardAlpha" operator="out"/><feColorMatrix type="matrix" values="0 0 0 0 0 0 0 0 0 0 0 0 0 0 0 0 0 0 0.1 0"/><feBlend mode="normal" in2="BackgroundImageFix" result="effect1_dropShadow_281_5058"/><feColorMatrix in="SourceAlpha" type="matrix" values="0 0 0 0 0 0 0 0 0 0 0 0 0 0 0 0 0 0 127 0" result="hardAlpha"/><feOffset dy="4"/><feGaussianBlur stdDeviation="2"/><feComposite in2="hardAlpha" operator="out"/><feColorMatrix type="matrix" values="0 0 0 0 0 0 0 0 0 0 0 0 0 0 0 0 0 0 0.05 0"/><feBlend mode="normal" in2="effect1_dropShadow_281_5058" result="effect2_dropShadow_281_5058"/><feColorMatrix in="SourceAlpha" type="matrix" values="0 0 0 0 0 0 0 0 0 0 0 0 0 0 0 0 0 0 127 0" result="hardAlpha"/><feOffset dy="1"/><feComposite in2="hardAlpha" operator="out"/><feColorMatrix type="matrix" values="0 0 0 0 0 0 0 0 0 0 0 0 0 0 0 0 0 0 0.05 0"/><feBlend mode="normal" in2="effect2_dropShadow_281_5058" result="effect3_dropShadow_281_5058"/><feBlend mode="normal" in="SourceGraphic" in2="effect3_dropShadow_281_5058" result="shape"/></filter><filter id="filter2_ddd_281_5058" x="82" y="-20" width="76" height="76" filterUnits="userSpaceOnUse" color-interpolation-filters="sRGB"><feFlood flood-opacity="0" result="BackgroundImageFix"/><feColorMatrix in="SourceAlpha" type="matrix" values="0 0 0 0 0 0 0 0 0 0 0 0 0 0 0 0 0 0 127 0" result="hardAlpha"/><feOffset dy="10"/><feGaussianBlur stdDeviation="5"/><feComposite in2="hardAlpha" operator="out"/><feColorMatrix type="matrix" values="0 0 0 0 0 0 0 0 0 0 0 0 0 0 0 0 0 0 0.1 0"/><feBlend mode="normal" in2="BackgroundImageFix" result="effect1_dropShadow_281_5058"/><feColorMatrix in="SourceAlpha" type="matrix" values="0 0 0 0 0 0 0 0 0 0 0 0 0 0 0 0 0 0 127 0" result="hardAlpha"/><feOffset dy="4"/><feGaussianBlur stdDeviation="2"/><feComposite in2="hardAlpha" operator="out"/><feColorMatrix type="matrix" values="0 0 0 0 0 0 0 0 0 0 0 0 0 0 0 0 0 0 0.05 0"/><feBlend mode="normal" in2="effect1_dropShadow_281_5058" result="effect2_dropShadow_281_5058"/><feColorMatrix in="SourceAlpha" type="matrix" values="0 0 0 0 0 0 0 0 0 0 0 0 0 0 0 0 0 0 127 0" result="hardAlpha"/><feOffset dy="1"/><feComposite in2="hardAlpha" operator="out"/><feColorMatrix type="matrix" values="0 0 0 0 0 0 0 0 0 0 0 0 0 0 0 0 0 0 0.05 0"/><feBlend mode="normal" in2="effect2_dropShadow_281_5058" result="effect3_dropShadow_281_5058"/><feBlend mode="normal" in="SourceGraphic" in2="effect3_dropShadow_281_5058" result="shape"/></filter><linearGradient id="paint0_linear_281_5058" x1="23.6125" y1="24.9702" x2="39.6975" y2="2.18785" gradientUnits="userSpaceOnUse"><stop stop-color="white" stop-opacity="0"/><stop offset="1" stop-color="white"/></linearGradient><linearGradient id="paint1_linear_281_5058" x1="69.6125" y1="24.9702" x2="85.6975" y2="2.18785" gradientUnits="userSpaceOnUse"><stop stop-color="white" stop-opacity="0"/><stop offset="1" stop-color="white"/></linearGradient><linearGradient id="paint2_linear_281_5058" x1="115.612" y1="24.9702" x2="131.697" y2="2.18785" gradientUnits="userSpaceOnUse"><stop stop-color="white" stop-opacity="0"/><stop offset="1" stop-color="white"/></linearGradient><clipPath id="clip0_281_5058"><rect width="16" height="16" fill="white" transform="translate(20 10)"/></clipPath><clipPath id="clip1_281_5058"><rect width="16" height="16" fill="white" transform="translate(112 10)"/></clipPath></defs></svg>